<svg version="1.2" xmlns="http://www.w3.org/2000/svg" viewBox="0 0 1200 540" width="1200" height="540">
	<title>15Z_2102</title>
	<style>
		.s0 { fill: #68b7e7 } 
		.s1 { fill: #406fbb } 
		.s2 { fill: #365cbb } 
		.s3 { fill: #90ffff } 
		.s4 { fill: #b7ffff } 
	</style>
	<g id="stars">
		<g id="&lt;Group&gt;">
			<path id="&lt;Path&gt;" class="s0" d="m625.1 33.2c0 0.5-0.4 0.9-1 0.9-0.5 0-0.9-0.4-0.9-0.9 0-0.5 0.4-1 0.9-1 0.6 0 1 0.5 1 1z"/>
			<path id="&lt;Path&gt;" class="s0" d="m607 133.4c0 0.5-0.4 0.9-0.9 0.9-0.6 0-1-0.4-1-0.9 0-0.5 0.4-1 1-1 0.5 0 0.9 0.5 0.9 1z"/>
			<path id="&lt;Path&gt;" class="s0" d="m740.5 183.1c0 0.6-0.4 1-0.9 1-0.6 0-1-0.4-1-1 0-0.5 0.4-0.9 1-0.9 0.5 0 0.9 0.4 0.9 0.9z"/>
			<path id="&lt;Path&gt;" class="s0" d="m766.8 297.3c0 0.5-0.4 0.9-0.9 0.9-0.5 0-0.9-0.4-0.9-0.9 0-0.5 0.4-0.9 0.9-0.9 0.5 0 0.9 0.4 0.9 0.9z"/>
			<path id="&lt;Path&gt;" class="s1" d="m681.8 145c0 0.5-0.4 0.9-0.9 0.9-0.5 0-0.9-0.4-0.9-0.9 0-0.5 0.4-0.9 0.9-0.9 0.5 0 0.9 0.4 0.9 0.9z"/>
			<path id="&lt;Path&gt;" class="s1" d="m637.8 123.8c0 0.5-0.4 0.9-0.9 0.9-0.5 0-1-0.4-1-0.9 0-0.5 0.5-1 1-1 0.5 0 0.9 0.5 0.9 1z"/>
			<path id="&lt;Path&gt;" class="s2" d="m583.1 81.2c0 0.5-0.4 0.9-0.9 0.9-0.5 0-1-0.4-1-0.9 0-0.5 0.5-0.9 1-0.9 0.5 0 0.9 0.4 0.9 0.9z"/>
			<path id="&lt;Path&gt;" class="s2" d="m526.8 11.5c0 0.6-0.4 1-0.9 1-0.6 0-1-0.4-1-1 0-0.5 0.4-0.9 1-0.9 0.5 0 0.9 0.4 0.9 0.9z"/>
			<path id="&lt;Path&gt;" class="s2" d="m636.9-20.3c0 0.5-0.4 0.9-1 0.9-0.5 0-0.9-0.4-0.9-0.9 0-0.5 0.4-0.9 0.9-0.9 0.6 0 1 0.4 1 0.9z"/>
			<path id="&lt;Path&gt;" class="s2" d="m696.1 144.1c0 0.5-0.4 0.9-1 0.9-0.5 0-0.9-0.4-0.9-0.9 0-0.5 0.4-1 0.9-1 0.6 0 1 0.5 1 1z"/>
			<path id="&lt;Path&gt;" class="s2" d="m703.8-28.1c0 0.5-0.4 1-0.9 1-0.6 0-1-0.5-1-1 0-0.5 0.4-0.9 1-0.9 0.5 0 0.9 0.4 0.9 0.9z"/>
			<path id="&lt;Path&gt;" class="s3" d="m516.3 360.7c0 0.6-0.4 1-0.9 1-0.5 0-1-0.4-1-1 0-0.5 0.5-0.9 1-0.9 0.5 0 0.9 0.4 0.9 0.9z"/>
			<path id="&lt;Path&gt;" class="s1" d="m737.2-7.7c0 0.5-0.5 0.9-1 0.9-0.5 0-0.9-0.4-0.9-0.9 0-0.5 0.4-0.9 0.9-0.9 0.5 0 1 0.4 1 0.9z"/>
			<path id="&lt;Path&gt;" class="s1" d="m729.1 115.8c0 0.5-0.4 0.9-0.9 0.9-0.5 0-0.9-0.4-0.9-0.9 0-0.5 0.4-0.9 0.9-0.9 0.5 0 0.9 0.4 0.9 0.9z"/>
			<path id="&lt;Path&gt;" class="s1" d="m491.3 71.2c0 0.5-0.5 0.9-1 0.9-0.5 0-0.9-0.4-0.9-0.9 0-0.6 0.4-1 0.9-1 0.5 0 1 0.4 1 1z"/>
			<path id="&lt;Path&gt;" class="s1" d="m870.1-16c0 0.5-0.4 0.9-0.9 0.9-0.6 0-1-0.4-1-0.9 0-0.6 0.4-1 1-1 0.5 0 0.9 0.4 0.9 1z"/>
			<path id="&lt;Path&gt;" class="s1" d="m540.4 119.9c0 0.5-0.4 0.9-0.9 0.9-0.5 0-0.9-0.4-0.9-0.9 0-0.5 0.4-0.9 0.9-0.9 0.5 0 0.9 0.4 0.9 0.9z"/>
			<path id="&lt;Path&gt;" class="s1" d="m626.1 372.3c0 0.5-0.4 0.9-0.9 0.9-0.5 0-0.9-0.4-0.9-0.9 0-0.5 0.4-0.9 0.9-0.9 0.5 0 0.9 0.4 0.9 0.9z"/>
			<path id="&lt;Path&gt;" class="s1" d="m934.5-28c0 0.5-0.4 0.9-0.9 0.9-0.5 0-0.9-0.4-0.9-0.9 0-0.6 0.4-1 0.9-1 0.5 0 0.9 0.4 0.9 1z"/>
			<path id="&lt;Path&gt;" class="s1" d="m552.6 5c0 0.5-0.4 0.9-0.9 0.9-0.5 0-0.9-0.4-0.9-0.9 0-0.5 0.4-0.9 0.9-0.9 0.5 0 0.9 0.4 0.9 0.9z"/>
			<path id="&lt;Path&gt;" class="s1" d="m733.6 242.4c0 0.6-0.4 1-0.9 1-0.5 0-0.9-0.4-0.9-1 0-0.5 0.4-0.9 0.9-0.9 0.5 0 0.9 0.4 0.9 0.9z"/>
			<path id="&lt;Path&gt;" class="s1" d="m437.2 114c0 0.5-0.4 0.9-0.9 0.9-0.5 0-0.9-0.4-0.9-0.9 0-0.5 0.4-0.9 0.9-0.9 0.5 0 0.9 0.4 0.9 0.9z"/>
			<path id="&lt;Path&gt;" class="s1" d="m458.3-18.4c0 0.5-0.4 0.9-0.9 0.9-0.5 0-0.9-0.4-0.9-0.9 0-0.6 0.4-1 0.9-1 0.5 0 0.9 0.4 0.9 1z"/>
			<path id="&lt;Path&gt;" class="s1" d="m656.8 201.3c0 0.5-0.4 1-0.9 1-0.5 0-1-0.5-1-1 0-0.5 0.5-0.9 1-0.9 0.5 0 0.9 0.4 0.9 0.9z"/>
			<path id="&lt;Path&gt;" class="s1" d="m584 47.2c0 0.6-0.4 1-0.9 1-0.5 0-0.9-0.4-0.9-1 0-0.5 0.4-0.9 0.9-0.9 0.5 0 0.9 0.4 0.9 0.9z"/>
			<path id="&lt;Path&gt;" class="s1" d="m801.8 269.4c0 0.5-0.4 1-0.9 1-0.6 0-1-0.5-1-1 0-0.5 0.4-0.9 1-0.9 0.5 0 0.9 0.4 0.9 0.9z"/>
			<path id="&lt;Path&gt;" class="s0" d="m748 51c0 0.5-0.4 0.9-1 0.9-0.5 0-0.9-0.4-0.9-0.9 0-0.5 0.4-1 0.9-1 0.6 0 1 0.5 1 1z"/>
			<path id="&lt;Path&gt;" class="s1" d="m793.6 58.7c0 0.5-0.4 1-0.9 1-0.5 0-0.9-0.5-0.9-1 0-0.5 0.4-0.9 0.9-0.9 0.5 0 0.9 0.4 0.9 0.9z"/>
			<path id="&lt;Path&gt;" class="s1" d="m686.4 300.2c0 0.5-0.4 0.9-0.9 0.9-0.5 0-1-0.4-1-0.9 0-0.5 0.5-1 1-1 0.5 0 0.9 0.5 0.9 1z"/>
			<path id="&lt;Path&gt;" class="s3" d="m512 86.6c0 0.5-0.5 0.9-1 0.9-0.5 0-0.9-0.4-0.9-0.9 0-0.5 0.4-1 0.9-1 0.5 0 1 0.5 1 1z"/>
			<path id="&lt;Path&gt;" class="s3" d="m598.9 97.8c0 0.5-0.4 1-0.9 1-0.5 0-0.9-0.5-0.9-1 0-0.5 0.4-0.9 0.9-0.9 0.5 0 0.9 0.4 0.9 0.9z"/>
			<path id="&lt;Path&gt;" class="s3" d="m589.6-19.4c0 0.5-0.4 1-1 1-0.5 0-0.9-0.5-0.9-1 0-0.5 0.4-0.9 0.9-0.9 0.6 0 1 0.4 1 0.9z"/>
			<path id="&lt;Path&gt;" class="s3" d="m432.4 50.9c0 0.6-0.4 1-0.9 1-0.5 0-0.9-0.4-0.9-1 0-0.5 0.4-0.9 0.9-0.9 0.5 0 0.9 0.4 0.9 0.9z"/>
			<path id="&lt;Path&gt;" class="s4" d="m654.8 233.1c0 0.5-0.5 0.9-1 0.9-0.5 0-0.9-0.4-0.9-0.9 0-0.5 0.4-0.9 0.9-0.9 0.5 0 1 0.4 1 0.9z"/>
			<path id="&lt;Path&gt;" class="s3" d="m616.2 14.5c0 0.5-0.4 0.9-0.9 0.9-0.5 0-0.9-0.4-0.9-0.9 0-0.6 0.4-1 0.9-1 0.5 0 0.9 0.4 0.9 1z"/>
			<path id="&lt;Path&gt;" class="s3" d="m792.7 141.9c0 0.5-0.4 0.9-0.9 0.9-0.5 0-1-0.4-1-0.9 0-0.6 0.5-1 1-1 0.5 0 0.9 0.4 0.9 1z"/>
			<path id="&lt;Path&gt;" class="s3" d="m603.7 236.2c0 0.5-0.4 0.9-1 0.9-0.5 0-0.9-0.4-0.9-0.9 0-0.6 0.4-1 0.9-1 0.6 0 1 0.4 1 1z"/>
			<path id="&lt;Path&gt;" class="s3" d="m475.1 244.3c0 0.5-0.4 0.9-0.9 0.9-0.5 0-1-0.4-1-0.9 0-0.5 0.5-1 1-1 0.5 0 0.9 0.5 0.9 1z"/>
			<path id="&lt;Path&gt;" class="s3" d="m791.8-33.5c0 0.5-0.4 0.9-1 0.9-0.5 0-0.9-0.4-0.9-0.9 0-0.5 0.4-0.9 0.9-0.9 0.6 0 1 0.4 1 0.9z"/>
			<path id="&lt;Path&gt;" class="s3" d="m728.6 33.1c0 0.6-0.4 1-0.9 1-0.5 0-0.9-0.4-0.9-1 0-0.5 0.4-0.9 0.9-0.9 0.5 0 0.9 0.4 0.9 0.9z"/>
			<path id="&lt;Path&gt;" class="s3" d="m697 86.6c0 0.5-0.4 0.9-0.9 0.9-0.5 0-1-0.4-1-0.9 0-0.5 0.5-1 1-1 0.5 0 0.9 0.5 0.9 1z"/>
			<path id="&lt;Path&gt;" class="s3" d="m600.8 86.9c0 0.5-0.4 0.9-1 0.9-0.5 0-0.9-0.4-0.9-0.9 0-0.5 0.4-1 0.9-1 0.6 0 1 0.5 1 1z"/>
			<path id="&lt;Path&gt;" class="s3" d="m630.7 249.4c0 0.5-0.4 0.9-0.9 0.9-0.5 0-0.9-0.4-0.9-0.9 0-0.6 0.4-1 0.9-1 0.5 0 0.9 0.4 0.9 1z"/>
			<path id="&lt;Path&gt;" class="s0" d="m604.6 168.9c0 0.5-0.4 1-0.9 1-0.5 0-0.9-0.5-0.9-1 0-0.5 0.4-0.9 0.9-0.9 0.5 0 0.9 0.4 0.9 0.9z"/>
			<path id="&lt;Path&gt;" class="s1" d="m546 130.8c0 0.5-0.4 0.9-1 0.9-0.5 0-0.9-0.4-0.9-0.9 0-0.5 0.4-0.9 0.9-0.9 0.6 0 1 0.4 1 0.9z"/>
			<path id="&lt;Path&gt;" class="s1" d="m501.9 109.6c0 0.5-0.4 0.9-0.9 0.9-0.5 0-0.9-0.4-0.9-0.9 0-0.6 0.4-1 0.9-1 0.5 0 0.9 0.4 0.9 1z"/>
			<path id="&lt;Path&gt;" class="s2" d="m447.2 67c0 0.5-0.4 0.9-0.9 0.9-0.5 0-0.9-0.4-0.9-0.9 0-0.5 0.4-0.9 0.9-0.9 0.5 0 0.9 0.4 0.9 0.9z"/>
			<path id="&lt;Path&gt;" class="s2" d="m390.9-2.7c0 0.5-0.4 1-0.9 1-0.5 0-1-0.5-1-1 0-0.5 0.5-0.9 1-0.9 0.5 0 0.9 0.4 0.9 0.9z"/>
			<path id="&lt;Path&gt;" class="s2" d="m501-34.5c0 0.5-0.4 0.9-0.9 0.9-0.5 0-1-0.4-1-0.9 0-0.5 0.5-1 1-1 0.5 0 0.9 0.5 0.9 1z"/>
			<path id="&lt;Path&gt;" class="s2" d="m406.6 207.4c0 0.5-0.4 0.9-0.9 0.9-0.6 0-1-0.4-1-0.9 0-0.5 0.4-0.9 1-0.9 0.5 0 0.9 0.4 0.9 0.9z"/>
			<path id="&lt;Path&gt;" class="s2" d="m560.2 129.9c0 0.5-0.4 0.9-0.9 0.9-0.5 0-1-0.4-1-0.9 0-0.6 0.5-1 1-1 0.5 0 0.9 0.4 0.9 1z"/>
			<path id="&lt;Path&gt;" class="s2" d="m567.9-42.3c0 0.5-0.4 0.9-0.9 0.9-0.5 0-0.9-0.4-0.9-0.9 0-0.5 0.4-0.9 0.9-0.9 0.5 0 0.9 0.4 0.9 0.9z"/>
			<path id="&lt;Path&gt;" class="s1" d="m355.4 56.9c0 0.6-0.4 1-0.9 1-0.6 0-1-0.4-1-1 0-0.5 0.4-0.9 1-0.9 0.5 0 0.9 0.4 0.9 0.9z"/>
			<path id="&lt;Path&gt;" class="s1" d="m404.6 105.7c0 0.5-0.4 0.9-1 0.9-0.5 0-0.9-0.4-0.9-0.9 0-0.5 0.4-1 0.9-1 0.6 0 1 0.5 1 1z"/>
			<path id="&lt;Path&gt;" class="s1" d="m416.8-9.2c0 0.5-0.4 0.9-1 0.9-0.5 0-0.9-0.4-0.9-0.9 0-0.5 0.4-1 0.9-1 0.6 0 1 0.5 1 1z"/>
			<path id="&lt;Path&gt;" class="s1" d="m411.6 236.1c0 0.5-0.4 0.9-0.9 0.9-0.5 0-0.9-0.4-0.9-0.9 0-0.5 0.4-1 0.9-1 0.5 0 0.9 0.5 0.9 1z"/>
			<path id="&lt;Path&gt;" class="s1" d="m301.3 99.8c0 0.5-0.4 0.9-0.9 0.9-0.5 0-0.9-0.4-0.9-0.9 0-0.5 0.4-0.9 0.9-0.9 0.5 0 0.9 0.4 0.9 0.9z"/>
			<path id="&lt;Path&gt;" class="s1" d="m322.5-32.7c0 0.6-0.4 1-1 1-0.5 0-0.9-0.4-0.9-1 0-0.5 0.4-0.9 0.9-0.9 0.6 0 1 0.4 1 0.9z"/>
			<path id="&lt;Path&gt;" class="s1" d="m448.2 33c0 0.5-0.4 1-1 1-0.5 0-0.9-0.5-0.9-1 0-0.5 0.4-0.9 0.9-0.9 0.6 0 1 0.4 1 0.9z"/>
			<path id="&lt;Path&gt;" class="s3" d="m376.1 72.4c0 0.5-0.4 0.9-1 0.9-0.5 0-0.9-0.4-0.9-0.9 0-0.6 0.4-1 0.9-1 0.6 0 1 0.4 1 1z"/>
			<path id="&lt;Path&gt;" class="s3" d="m453.7-33.6c0 0.5-0.4 0.9-0.9 0.9-0.5 0-1-0.4-1-0.9 0-0.5 0.5-0.9 1-0.9 0.5 0 0.9 0.4 0.9 0.9z"/>
			<path id="&lt;Path&gt;" class="s4" d="m518.9 218.9c0 0.5-0.4 0.9-0.9 0.9-0.6 0-1-0.4-1-0.9 0-0.5 0.4-0.9 1-0.9 0.5 0 0.9 0.4 0.9 0.9z"/>
			<path id="&lt;Path&gt;" class="s3" d="m467.8 221.9c0 0.6-0.4 1-0.9 1-0.5 0-1-0.4-1-1 0-0.5 0.5-0.9 1-0.9 0.5 0 0.9 0.4 0.9 0.9z"/>
			<path id="&lt;Path&gt;" class="s3" d="m339.2 230.1c0 0.5-0.4 0.9-0.9 0.9-0.5 0-0.9-0.4-0.9-0.9 0-0.5 0.4-1 0.9-1 0.5 0 0.9 0.5 0.9 1z"/>
			<path id="&lt;Path&gt;" class="s3" d="m592.7 18.9c0 0.5-0.4 1-0.9 1-0.5 0-0.9-0.5-0.9-1 0-0.5 0.4-0.9 0.9-0.9 0.5 0 0.9 0.4 0.9 0.9z"/>
			<path id="&lt;Path&gt;" class="s3" d="m561.1 72.4c0 0.5-0.4 0.9-0.9 0.9-0.5 0-0.9-0.4-0.9-0.9 0-0.6 0.4-1 0.9-1 0.5 0 0.9 0.4 0.9 1z"/>
			<path id="&lt;Path&gt;" class="s3" d="m467.9 79.2c0 0.5-0.4 1-0.9 1-0.5 0-1-0.5-1-1 0-0.5 0.5-0.9 1-0.9 0.5 0 0.9 0.4 0.9 0.9z"/>
			<path id="&lt;Path&gt;" class="s3" d="m494.9 235.1c0 0.6-0.5 1-1 1-0.5 0-0.9-0.4-0.9-1 0-0.5 0.4-0.9 0.9-0.9 0.5 0 1 0.4 1 0.9z"/>
			<path id="&lt;Path&gt;" class="s3" d="m728.4 230.7c0 0.5-0.4 0.9-0.9 0.9-0.5 0-0.9-0.4-0.9-0.9 0-0.5 0.4-1 0.9-1 0.5 0 0.9 0.5 0.9 1z"/>
			<path id="&lt;Path&gt;" class="s1" d="m858.6 113.1c0 0.5-0.4 0.9-1 0.9-0.5 0-0.9-0.4-0.9-0.9 0-0.5 0.4-0.9 0.9-0.9 0.6 0 1 0.4 1 0.9z"/>
			<path id="&lt;Path&gt;" class="s1" d="m781.7 72c0 0.5-0.4 0.9-0.9 0.9-0.5 0-0.9-0.4-0.9-0.9 0-0.6 0.4-1 0.9-1 0.5 0 0.9 0.4 0.9 1z"/>
			<path id="&lt;Path&gt;" class="s1" d="m373.9-22.5c0 0.5-0.4 1-0.9 1-0.5 0-0.9-0.5-0.9-1 0-0.5 0.4-0.9 0.9-0.9 0.5 0 0.9 0.4 0.9 0.9z"/>
			<path id="&lt;Path&gt;" class="s1" d="m716.1 139.2c0 0.5-0.4 0.9-1 0.9-0.5 0-0.9-0.4-0.9-0.9 0-0.5 0.4-1 0.9-1 0.6 0 1 0.5 1 1z"/>
			<path id="&lt;Path&gt;" class="s1" d="m811.3 170.8c0 0.5-0.4 0.9-0.9 0.9-0.5 0-0.9-0.4-0.9-0.9 0-0.5 0.4-0.9 0.9-0.9 0.5 0 0.9 0.4 0.9 0.9z"/>
			<path id="&lt;Path&gt;" class="s3" d="m853.4 101.3c0 0.5-0.5 0.9-1 0.9-0.5 0-0.9-0.4-0.9-0.9 0-0.5 0.4-0.9 0.9-0.9 0.5 0 1 0.4 1 0.9z"/>
		</g>
	</g>
</svg>