<?xml version="1.0" standalone="no"?>
<svg viewBox="0 0 200 200" xmlns="http://www.w3.org/2000/svg">
  <path fill="#F5EBE0" d="M41.8,-54.1C55.9,-47.3,70.4,-37.4,78.7,-22.9C87.1,-8.4,89.4,10.7,80.9,23.1C72.5,35.5,53.2,41.1,37.9,51.9C22.7,62.7,11.3,78.7,-3.4,83.4C-18.2,88.1,-36.4,81.6,-51,70.6C-65.7,59.6,-76.8,44.1,-79.3,27.8C-81.7,11.5,-75.5,-5.5,-68.8,-21.2C-62.1,-36.9,-54.9,-51.3,-43.3,-58.9C-31.8,-66.6,-15.9,-67.5,-1,-66.1C13.8,-64.6,27.7,-60.9,41.8,-54.1Z" transform="translate(100 100)" />
</svg>
