<?xml version="1.0" standalone="no"?>
<svg viewBox="0 0 200 200" xmlns="http://www.w3.org/2000/svg">
  <path fill="#F2F4F8" d="M39.7,-70.6C51.7,-61.9,61.9,-51.7,68.8,-39.7C75.8,-27.7,79.5,-13.9,79.9,0.2C80.2,14.3,77.2,28.5,69.8,39.8C62.4,51.1,50.8,59.4,38.4,65.9C26.1,72.4,13,77.1,-1.7,80.1C-16.5,83,-33,84.4,-45.6,78C-58.3,71.7,-67.1,57.8,-73.3,43.5C-79.5,29.2,-83.1,14.6,-82.7,0.2C-82.4,-14.2,-78.2,-28.4,-70.9,-40.9C-63.6,-53.3,-53.3,-63.9,-41,-72.4C-28.7,-80.9,-14.3,-87.3,-0.2,-86.9C13.9,-86.5,27.7,-79.2,39.7,-70.6Z" transform="translate(100 100)" />
</svg>
