<?xml version="1.0" standalone="no"?>
<svg viewBox="0 0 200 200" xmlns="http://www.w3.org/2000/svg">
  <path fill="#F2F4F8" d="M44.3,-76.9C58.3,-68.7,71.1,-58.5,77.2,-45.4C83.4,-32.3,82.8,-16.1,81.9,-0.6C80.9,15,79.5,30,73.2,42.9C66.8,55.7,55.6,66.3,42.6,71.6C29.6,76.8,14.8,76.8,0,76.7C-14.7,76.7,-29.5,76.6,-42.3,71.3C-55.2,65.9,-66.1,55.2,-74.6,42.4C-83.1,29.7,-89.1,14.8,-89,0.1C-88.8,-14.7,-82.5,-29.3,-73.6,-41.4C-64.7,-53.4,-53.2,-62.9,-40.5,-71.9C-27.8,-80.8,-13.9,-89.4,0.6,-90.4C15.2,-91.5,30.3,-85.1,44.3,-76.9Z" transform="translate(100 100)" />
</svg>
