<?xml version="1.0" encoding="UTF-8" standalone="no"?>
<!DOCTYPE svg PUBLIC "-//W3C//DTD SVG 1.1//EN" "http://www.w3.org/Graphics/SVG/1.1/DTD/svg11.dtd">
<!-- Created with Vectornator (http://vectornator.io/) -->
<svg height="100%" stroke-miterlimit="10" style="fill-rule:nonzero;clip-rule:evenodd;stroke-linecap:round;stroke-linejoin:round;" version="1.1" viewBox="0 0 1925.83 329.62" width="100%" xml:space="preserve" xmlns="http://www.w3.org/2000/svg" xmlns:vectornator="http://vectornator.io" xmlns:xlink="http://www.w3.org/1999/xlink">
<defs/>
<clipPath id="ArtboardFrame">
<rect height="329.62" width="1925.83" x="0" y="0"/>
</clipPath>
<g clip-path="url(#ArtboardFrame)" id="Layer-2" vectornator:layerName="Layer 2">
<g opacity="1">
<path d="M509.625 145.446C503.198 145.446 498.584 146.239 488.25 148.602C480.137 150.457 476.629 151.039 472.875 151.04C465.107 151.04 458.813 157.334 458.813 165.102C458.813 172.87 465.108 179.165 472.875 179.165C474.21 179.165 475.464 178.957 476.719 178.883C475.659 181.096 474.958 182.473 473.407 185.79C473.138 186.364 473.144 186.373 472.875 186.946C460.029 214.407 453.409 225.379 444.625 231.446C440.239 234.475 435.815 235.482 430.157 234.477C422.594 233.135 413.07 228.178 401.532 218.946C400.677 218.262 397.739 215.96 397.25 215.571C388.829 208.862 385.482 204.903 384.532 200.696C390.816 197.673 394.046 190.426 391.782 183.633C389.939 178.107 384.996 174.5 379.532 174.071C377.71 173.928 375.843 174.113 374 174.727C364.614 177.856 356.404 181.603 342.032 188.79C335.084 192.264 332.277 200.686 335.75 207.633C339.224 214.581 347.678 217.42 354.625 213.946C356.256 213.131 357.162 212.76 358.625 212.04C360.306 216.487 362.692 220.646 365.875 224.54C369.533 229.014 373.429 232.561 379.719 237.571C380.27 238.01 383.159 240.292 383.938 240.915C413.723 264.743 439.322 269.285 460.625 254.571C469.03 248.766 476.092 240.405 482.875 229.196C487.675 221.265 491.223 214.172 498.375 198.883C498.644 198.309 503.906 187.072 505.875 183.133C507.385 180.115 507.656 176.839 506.969 173.79C507.818 173.723 508.81 173.571 509.625 173.571C517.393 173.571 523.688 167.276 523.688 159.508C523.688 151.741 517.393 145.446 509.625 145.446Z" fill="#000000" fill-rule="nonzero" opacity="1" stroke="none"/>
<path d="M1576.72 160.165C1571.25 160.594 1566.31 164.232 1564.47 169.758C1562.01 177.128 1566.01 185.084 1573.38 187.54C1575.46 188.236 1577.54 188.636 1579.72 188.821C1581.35 188.959 1582.47 188.979 1584.72 188.946C1585.85 188.929 1586.27 188.928 1586.56 188.946C1586.47 188.94 1586.19 188.895 1585.69 188.727C1593.06 191.184 1601.01 187.19 1603.47 179.821C1605.93 172.452 1601.93 164.496 1594.56 162.04C1592.5 161.351 1590.47 160.987 1588.31 160.852C1587.04 160.773 1586.19 160.794 1584.31 160.821C1582.99 160.84 1582.49 160.824 1582.09 160.79C1582.01 160.782 1582.06 160.789 1582.25 160.852C1580.41 160.238 1578.54 160.022 1576.72 160.165Z" fill="#000000" fill-rule="nonzero" opacity="1" stroke="none"/>
<path d="M1581.03 121.133C1579.72 121.133 1578.44 121.399 1577.19 121.758C1569.58 121.945 1563.47 128.139 1563.47 135.79C1563.47 143.558 1569.76 149.852 1577.53 149.852L1579.88 149.852C1581.16 149.852 1582.4 149.632 1583.63 149.29L1588.66 149.29C1596.42 149.29 1602.72 142.995 1602.72 135.227C1602.72 127.459 1596.42 121.134 1588.66 121.133L1581.03 121.133Z" fill="#000000" fill-rule="nonzero" opacity="1" stroke="none"/>
<path d="M829.657 73.3522L829.719 66.696C829.436 67.8092 829.25 68.9634 829.25 70.1647C829.25 71.2648 829.418 72.324 829.657 73.3522Z" fill="#000000" fill-rule="nonzero" opacity="1" stroke="none"/>
<path d="M1568.97 18.8522C1562.45 18.3088 1556.22 22.3921 1554.31 28.9147L1543.63 65.4147C1534.5 58.3357 1523.16 54.0494 1510.22 52.4772C1506.27 51.9974 1502.19 51.7827 1498.13 51.7897C1485.93 51.8123 1473.86 53.8285 1465.56 56.7585C1433.01 68.2467 1412.63 98.5897 1404.13 139.696C1397.25 172.943 1398.86 211.754 1407.38 240.508C1425.23 300.754 1475.9 334.961 1535.63 324.102C1544.79 322.436 1565.61 313.926 1581.84 304.977C1588.84 301.122 1594.93 297.233 1600.03 293.321L1608.06 317.821C1610.48 325.204 1618.4 329.236 1625.78 326.821C1633.16 324.407 1637.2 316.454 1634.78 309.071L1602.31 209.758C1600.5 204.221 1595.59 200.563 1590.13 200.102C1588.3 199.949 1586.41 200.155 1584.56 200.758C1577.18 203.173 1573.15 211.126 1575.56 218.508L1589.47 260.977C1589.18 262.319 1588.98 263.698 1589.09 265.102C1588.63 265.79 1588.04 266.619 1586.72 267.852C1582.77 271.553 1576.32 275.903 1568.25 280.352C1554.44 287.961 1536.23 295.39 1530.59 296.415C1485.53 304.609 1448.25 279.451 1434.34 232.508C1427.14 208.208 1425.72 174.097 1431.66 145.383C1438.36 112.987 1453.16 90.9632 1474.91 83.2897C1482.05 80.7688 1495.52 79.0113 1506.81 80.3835C1520.26 82.0178 1529.41 87.4542 1534.19 97.6335L1524.94 129.227C1522.75 136.682 1527.02 144.48 1534.47 146.665C1541.92 148.849 1549.75 144.588 1551.94 137.133L1581.31 36.8522C1583.5 29.3977 1579.2 21.5678 1571.75 19.3835C1570.82 19.1105 1569.9 18.9301 1568.97 18.8522Z" fill="#000000" fill-rule="nonzero" opacity="1" stroke="none"/>
<path d="M1830.09 117.415C1824.62 117.153 1819.27 120.101 1816.75 125.352C1815.85 127.222 1815.2 128.73 1813.97 131.727C1813.63 132.545 1813.6 132.628 1813.47 132.946C1812.72 134.757 1812.21 135.944 1811.69 137.04C1808.32 144.041 1811.25 152.456 1818.25 155.821C1825.25 159.186 1833.67 156.228 1837.03 149.227C1837.83 147.56 1838.54 145.95 1839.47 143.696C1839.61 143.354 1839.62 143.286 1839.97 142.446C1841 139.938 1841.5 138.769 1842.09 137.54C1845.46 130.538 1842.53 122.155 1835.53 118.79C1833.78 117.949 1831.92 117.502 1830.09 117.415Z" fill="#000000" fill-rule="nonzero" opacity="1" stroke="none"/>
<path d="M384.375 124.602C377.951 125.393 372.031 130.278 372.032 138.571L372.032 143.665C372.032 145.848 372.555 148.024 373.532 149.977L373.594 150.133L374.282 152.196C376.738 159.565 384.725 163.559 392.094 161.102C399.463 158.646 403.426 150.69 400.969 143.321L400.532 142.008C400.689 140.438 400.655 138.816 400.25 137.196L399.75 135.165C397.739 127.119 390.8 123.811 384.375 124.602Z" fill="#000000" fill-rule="nonzero" opacity="1" stroke="none"/>
<path d="M1773.38 0.00849292C1753.1-0.227238 1733.66 4.44617 1715.63 13.7897C1683.49 30.44 1657.78 61.1211 1642.84 98.7272C1628.2 135.607 1625.04 176.474 1634.72 212.321C1645.48 252.161 1671.26 283.509 1710.25 300.665C1754.1 319.958 1797.12 320.032 1834.53 302.758C1868.47 287.086 1895.79 257.833 1911.53 221.665C1927.23 185.614 1930.3 145.298 1919.25 109.008C1907.09 69.0641 1878.81 36.3026 1836.16 15.696C1814.79 5.37266 1793.65 0.243984 1773.38 0.00849292ZM1773.69 28.1335C1789.65 28.4144 1806.47 32.6147 1823.91 41.0397C1859.53 58.2517 1882.49 84.8084 1892.34 117.196C1901.38 146.899 1898.85 180.338 1885.75 210.415C1872.67 240.461 1850.2 264.552 1822.75 277.227C1792.77 291.07 1758.17 291.006 1721.59 274.915C1690.6 261.279 1670.47 236.805 1661.88 204.977C1653.83 175.2 1656.52 140.518 1669 109.102C1681.56 77.4771 1702.81 52.1003 1728.56 38.7585C1742.6 31.4857 1757.72 27.8525 1773.69 28.1335Z" fill="#000000" fill-rule="nonzero" opacity="1" stroke="none"/>
<path d="M432.344 30.571C426.665 30.6987 420.591 31.319 414.157 32.3835C393.708 35.7668 369.473 43.961 358.563 50.6022C317.205 75.7769 291.423 121.427 288.75 170.102C285.997 220.252 308.056 265.929 350.782 290.665C362.401 297.392 376 301.898 391.657 304.727C403.796 306.921 416.435 308.027 431.969 308.602C474.104 310.163 510.128 297.445 536.782 273.258C561.016 251.268 576.057 220.853 579.438 188.727C582.828 156.519 574.236 125.037 554.719 101.54C536.139 79.1698 508.96 65.4503 475.469 62.196C476.391 59.4159 476.498 56.3445 475.5 53.3522C471.494 41.3345 461.436 34.3059 448.094 31.7272C443.287 30.7982 438.023 30.4435 432.344 30.571ZM432.282 58.696C436.329 58.5643 439.873 58.7903 442.782 59.3522C447.04 60.1753 448.456 61.1887 448.813 62.2585C449.162 63.3071 449.664 64.262 450.219 65.1647C447.45 67.7334 445.688 71.3716 445.688 75.446C445.688 83.2139 451.982 89.5081 459.75 89.5085C492.397 89.5085 517.172 100.376 533.063 119.508C547.543 136.943 554.093 160.864 551.469 185.79C548.801 211.142 536.911 235.173 517.875 252.446C496.749 271.616 467.901 281.77 433 280.477C401.973 279.328 380.738 275.504 364.875 266.321C331.771 247.155 314.615 211.659 316.813 171.633C318.991 131.962 339.985 94.8444 373.188 74.6335C380.755 70.0275 401.628 62.9661 418.75 60.1335C423.681 59.3178 428.234 58.8276 432.282 58.696Z" fill="#000000" fill-rule="nonzero" opacity="1" stroke="none"/>
<path d="M1763.84 91.5397C1758.37 91.2775 1753.02 94.2264 1750.5 99.4772C1750.28 99.9284 1750.29 99.9355 1748.84 102.415C1747.75 104.291 1747.02 105.616 1746.31 107.165C1744.7 110.67 1743.75 114.094 1743.81 117.915C1743.93 125.682 1750.33 131.88 1758.09 131.758C1765.34 131.645 1771.15 126.059 1771.81 119.008C1771.83 118.982 1771.83 118.992 1771.88 118.883C1772.11 118.372 1772.46 117.714 1773.13 116.571C1773.25 116.364 1774.18 114.792 1774.38 114.446C1774.94 113.449 1775.41 112.562 1775.84 111.665C1779.21 104.663 1776.25 96.2802 1769.25 92.9147C1767.5 92.0735 1765.67 91.6269 1763.84 91.5397Z" fill="#000000" fill-rule="nonzero" opacity="1" stroke="none"/>
<path d="M1709.16 134.165C1703.68 133.903 1698.3 136.883 1695.78 142.133C1692.42 149.135 1695.37 157.549 1702.38 160.915C1703.23 161.323 1704.28 161.622 1705.19 162.008C1697.76 199.604 1717.67 231.175 1751.5 242.321C1785.68 253.583 1822.54 240.141 1839.56 205.977C1842.67 206.592 1845.59 206.982 1847.91 206.946C1855.67 206.825 1861.87 200.432 1861.75 192.665C1861.63 184.898 1855.2 178.699 1847.44 178.821C1846.15 178.841 1840.91 177.62 1836.34 175.915C1833.88 174.996 1831.82 174.028 1830.5 173.196C1830.45 173.163 1830.42 173.133 1830.38 173.102C1827.97 169.149 1823.77 166.668 1819.25 166.383C1817.43 166.269 1815.55 166.49 1813.72 167.133C1806.39 169.705 1802.52 177.741 1805.09 185.071C1806.62 189.43 1809.47 192.628 1813.22 195.383C1802.3 214.981 1780.99 222.417 1760.31 215.602C1740.17 208.967 1728.93 191.626 1732.59 169.196C1736.43 169.653 1740.18 169.906 1743.59 169.852C1751.36 169.731 1757.56 163.306 1757.44 155.54C1757.32 147.773 1750.92 141.574 1743.16 141.696C1734.7 141.828 1722.07 139.149 1714.56 135.54C1712.81 134.699 1710.98 134.252 1709.16 134.165Z" fill="#000000" fill-rule="nonzero" opacity="1" stroke="none"/>
<path d="M122.25 49.0397L17.7504 49.7897C9.98262 49.8441 3.75846 56.1785 3.81285 63.946C3.81599 64.3946 3.92499 64.8208 3.9691 65.2585C3.91056 65.7973 3.80897 66.3283 3.81285 66.8835C3.86722 74.6512 10.2014 80.9067 17.9691 80.8522L50.0316 80.6335L51.5629 288.946L13.9691 289.196C6.20137 289.25-0.0540354 295.616 0.00035198 303.383C0.0547153 311.151 6.38884 317.407 14.1566 317.352L118.657 316.602C126.424 316.548 132.68 310.214 132.625 302.446C132.571 294.678 126.237 288.423 118.469 288.477L79.6879 288.758L79.0004 193.383C83.4903 194.42 88.9627 195.792 96.0629 197.79C110.804 201.938 127.815 207.278 130.469 208.477C167.885 225.375 197.18 252.101 216.532 286.821L175 287.102C167.233 287.157 160.977 293.491 161.032 301.258C161.086 309.026 167.42 315.282 175.188 315.227L279.688 314.508C287.456 314.454 293.711 308.089 293.657 300.321C293.602 292.553 287.268 286.329 279.5 286.383L247.157 286.602C247.002 284.902 246.56 283.19 245.75 281.571C223.638 237.345 187.901 203.536 142.032 182.821C138.954 181.431 129.216 178.333 118.407 175.071C133.987 168.289 150.943 159.477 168.313 149.04C208.295 125.015 240.082 99.0005 249.532 80.1022C249.904 79.358 250.145 78.5917 250.375 77.821L283.063 77.6022C290.831 77.5479 297.086 71.2135 297.032 63.446C296.977 55.6783 290.643 49.4228 282.875 49.4772L178.375 50.196C170.608 50.2504 164.352 56.5849 164.407 64.3522C164.461 72.12 170.795 78.3754 178.563 78.321L216.313 78.071C204.083 91.0516 180.955 108.606 153.813 124.915C124.919 142.276 96.9202 154.973 78.7504 159.383L78.1879 80.446L122.469 80.1335C130.237 80.0791 136.492 73.7448 136.438 65.9772C136.434 65.497 136.332 65.0385 136.282 64.571C136.336 64.0523 136.442 63.5422 136.438 63.0085C136.383 55.2408 130.018 48.9854 122.25 49.0397Z" fill="#000000" fill-rule="nonzero" opacity="1" stroke="none"/>
<path d="M1286.69 15.3835C1281.22 14.9616 1275.77 17.7708 1273.09 22.946L1256.97 54.1335C1244.01 47.9787 1229.9 45.4348 1215.41 46.321C1200.36 47.2405 1184.92 51.757 1169.97 59.4772C1142.8 73.5084 1119.64 97.0681 1108.28 122.633C1076.61 193.897 1120.58 279.282 1197.06 296.665C1222.11 302.357 1251.09 301.803 1277.56 294.977C1306.76 287.45 1331.38 272.825 1347.25 251.946C1375.99 214.133 1382.6 167.342 1366.22 128.352C1351.84 94.1259 1321.83 70.7949 1283.22 64.6647L1298.09 35.8835C1301.66 28.9834 1298.96 20.4827 1292.06 16.9147C1290.34 16.0228 1288.51 15.5238 1286.69 15.3835ZM1224 74.3835C1231.1 74.7189 1237.84 76.3219 1244.06 79.1335L1225.09 115.79C1221.53 122.69 1224.23 131.159 1231.13 134.727C1238.03 138.295 1246.53 135.596 1250.09 128.696L1269.31 91.5085C1303.12 93.6458 1328.64 111.461 1340.31 139.258C1352.73 168.83 1347.59 204.983 1324.84 234.915C1301.6 265.502 1247.86 279.358 1203.28 269.227C1143.93 255.739 1109.59 189.004 1134 134.071C1142.68 114.547 1161.22 95.6593 1182.88 84.4772C1196.94 77.215 1211.03 73.7704 1224 74.3835Z" fill="#000000" fill-rule="nonzero" opacity="1" stroke="none"/>
<path d="M449.969 109.727C448.148 109.584 446.28 109.801 444.438 110.415C437.069 112.871 433.075 120.858 435.532 128.227C435.888 129.295 436.052 129.782 436.844 132.446C438.288 137.305 439.241 139.99 440.907 143.321C444.381 150.269 452.834 153.108 459.782 149.633C466.729 146.16 469.537 137.706 466.063 130.758C465.338 129.31 464.814 127.784 463.813 124.415C462.917 121.399 462.714 120.807 462.219 119.321C460.377 113.794 455.433 110.156 449.969 109.727Z" fill="#000000" fill-rule="nonzero" opacity="1" stroke="none"/>
<path d="M674.094 43.6647L569.594 44.3835C561.826 44.4379 555.571 50.8035 555.625 58.571C555.68 66.3387 562.014 72.5629 569.782 72.5085L609.563 72.2272L611.032 275.258L579.782 275.477C572.014 275.532 565.759 281.866 565.813 289.633C565.867 297.401 572.201 303.657 579.969 303.602L684.469 302.883C692.237 302.829 698.492 296.495 698.438 288.727C698.383 280.96 692.049 274.704 684.282 274.758L639.157 275.071L638.407 169.508C648.329 152.216 672.779 126.577 697.375 108.946C724.921 89.2008 746.559 83.3542 755.219 91.2272C767.26 102.174 778.013 133.695 785.25 177.571C790.644 210.268 793.721 248.134 794.125 276.227L760.844 276.446C753.076 276.5 746.821 282.834 746.875 290.602C746.93 298.37 753.295 304.626 761.063 304.571L865.563 303.852C873.331 303.798 879.555 297.464 879.5 289.696C879.446 281.928 873.112 275.673 865.344 275.727L822.25 276.008C821.839 246.507 818.669 207.184 813.032 173.008C804.774 122.951 792.551 87.1373 774.157 70.4147C766.586 63.5324 757.379 60.0925 747.094 59.696C740.923 59.4579 734.37 60.3206 727.532 62.1647C713.127 66.0487 697.292 74.3704 680.969 86.071C665.722 97.0004 650.638 110.579 638.063 124.133L637.688 72.0397L674.282 71.7897C682.049 71.7354 688.305 65.4012 688.25 57.6335C688.196 49.8658 681.861 43.6103 674.094 43.6647Z" fill="#000000" fill-rule="nonzero" opacity="1" stroke="none"/>
<path d="M1087.69 7.91474C1079.92 7.78428 1073.51 13.9604 1073.38 21.7272L1072.88 51.821C1068.57 50.9898 1063.74 50.4331 1057.94 50.0397C1055.96 49.9054 1054.92 49.8593 1050.81 49.6335C1044.78 49.3022 1041.99 49.0917 1039.44 48.7272C1025.46 46.7304 1011.2 45.7829 996.063 45.7272C991.017 45.7089 985.891 45.7704 980.625 45.946C964.308 46.4902 949.215 47.7479 924.188 50.321C922.372 50.5076 920.969 50.6305 917.625 50.9772C889.535 53.8864 873.218 55.323 858 55.8522L858.407 24.0397C858.505 16.2724 852.267 9.91916 844.5 9.82099C836.733 9.72267 830.38 15.9304 830.282 23.696L829.719 66.696L829.657 73.3522L828.938 128.165C828.84 135.932 835.078 142.316 842.844 142.415C850.611 142.513 856.965 136.306 857.063 128.54L857.625 84.0085C873.988 83.4939 890.955 82.0371 920.5 78.9772C923.837 78.6317 925.258 78.4748 927.063 78.2897C929.73 78.0156 931.679 77.8839 934.219 77.6335C927.64 107.377 923.226 139.57 922.188 170.446C920.815 211.273 925.02 248.071 935.532 277.852C944.597 303.539 963.258 315.439 987 313.665C1003.14 312.459 1020.01 305.432 1039 294.04C1039.67 293.636 1048.15 289.106 1051.25 287.321C1053.7 285.909 1055.88 284.546 1057.88 283.196L1073.72 321.04C1076.72 328.206 1084.96 331.57 1092.13 328.571C1099.29 325.572 1102.69 317.331 1099.69 310.165L1059.34 213.758C1057.1 208.384 1051.89 205.154 1046.41 205.133C1044.58 205.126 1042.73 205.478 1040.94 206.227C1033.77 209.226 1030.38 217.467 1033.38 224.633L1046.41 255.79C1046.06 256.347 1045.58 256.801 1045.31 257.415C1045.17 257.553 1045.12 257.645 1044.84 257.883C1043.24 259.249 1040.62 260.965 1037.19 262.946C1034.72 264.369 1025.96 269.057 1024.53 269.915C1009.01 279.23 995.601 284.804 984.907 285.602C973.704 286.439 966.858 282.065 962.063 268.477C944.724 219.35 947.035 143.33 963.563 75.071C992.543 73.0406 1013.11 73.377 1035.47 76.571C1039.12 77.0921 1042.4 77.3485 1049.28 77.7272C1053.25 77.9452 1054.22 77.9796 1056.03 78.1022C1064.29 78.6628 1069.43 79.6057 1072.38 80.9147L1071.63 126.227C1071.49 133.994 1077.7 140.377 1085.47 140.508C1093.24 140.639 1099.62 134.463 1099.75 126.696L1101.5 22.196C1101.63 14.4292 1095.45 8.04576 1087.69 7.91474Z" fill="#000000" fill-rule="nonzero" opacity="1" stroke="none"/>
</g>
</g>
</svg>
