<?xml version="1.0" encoding="UTF-8" standalone="no"?>
<!DOCTYPE svg PUBLIC "-//W3C//DTD SVG 1.1//EN" "http://www.w3.org/Graphics/SVG/1.1/DTD/svg11.dtd">
<!-- Created with Vectornator (http://vectornator.io/) -->
<svg height="100%" stroke-miterlimit="10" style="fill-rule:nonzero;clip-rule:evenodd;stroke-linecap:round;stroke-linejoin:round;" version="1.1" viewBox="0 0 2560 1440" width="100%" xml:space="preserve" xmlns="http://www.w3.org/2000/svg" xmlns:vectornator="http://vectornator.io" xmlns:xlink="http://www.w3.org/1999/xlink">
<defs/>
<clipPath id="ArtboardFrame">
<rect height="1440" width="2560" x="0" y="0"/>
</clipPath>
<g clip-path="url(#ArtboardFrame)" id="Layer-1" opacity="0.2" vectornator:layerName="Layer 1" visibility="hidden">
<path d="M1617.47 1887.88C1613.41 1890.31 1607.05 1890.79 1605.29 1895.19C1604.2 1897.91 1610.16 1898.44 1612.6 1900.06" fill="none" opacity="1" stroke="#000000" stroke-linecap="round" stroke-linejoin="round" stroke-width="6.49565"/>
<path d="M1546.53-332.135C1549.7-330.851 1539.35-331.572 1535.87-332.135C1533.28-332.554 1526.12-335.006 1528.77-335.006C1534.8-335.006 1541.13-334.317 1546.53-332.135Z" fill="none" opacity="1" stroke="#000000" stroke-linecap="round" stroke-linejoin="round" stroke-width="6.49565"/>
<path d="M22.7941-2584.38C22.7941-2572.71 22.7941-2561.05 22.7941-2549.38" fill="none" opacity="1" stroke="#000000" stroke-linecap="round" stroke-linejoin="round" stroke-width="6.49565"/>
<path d="M446.749 522.906C464.237 522.906 453.456 499.882 446.749 493.673C443.419 490.59 438.319 489.038 434.468 486.365C412.58 471.168 397.582 451.879 363.855 454.696C274.646 462.147 237.025 533.073 219.557 593.553C207.742 634.461 204.207 675.979 204.207 717.793C204.207 736.487 203.655 755.351 207.277 773.823C210.864 792.12 216.435 810.421 225.698 827.417C233.02 840.853 243.634 853.389 256.399 863.958C267.595 873.228 281.119 881.463 296.311 885.883C312.758 890.668 330.997 891.234 348.504 890.755C381.67 889.847 410.93 873.702 431.398 854.214C438.723 847.239 443.974 838.66 446.749 829.853" fill="none" opacity="1" stroke="#000000" stroke-linecap="round" stroke-linejoin="round" stroke-width="30.8976"/>
<path d="M366.925 749.462C369.995 751.898 371.793 756.77 376.135 756.77C383.929 756.77 391.07 752.806 397.626 749.462C405.563 745.414 411.509 739.273 419.117 734.845C426.903 730.315 435.646 726.914 443.679 722.665C451.004 718.79 457.044 713.171 465.17 710.485C469.893 708.923 476.636 707.842 480.521 710.485C485.435 713.827 486.302 719.973 486.661 725.101C487.344 734.864 485.617 744.689 483.591 754.334C480.488 769.103 474.486 783.424 471.31 798.184C459.787 851.735 453.517 907.466 465.17 961.401C467.687 973.055 471.509 984.664 477.45 995.506C481.864 1003.56 489.032 1010.52 495.871 1017.43C505.745 1027.4 518.99 1038.06 532.713 1027.18" fill="none" opacity="1" stroke="#000000" stroke-linecap="round" stroke-linejoin="round" stroke-width="30.8976"/>
<path d="M568.378 797.538C566.724 796.475 563.415 794.35 563.415 794.35C563.415 794.35 566.564 797.072 568.378 797.538C574.057 798.997 580.072 798.997 585.75 797.538C599.351 794.044 605.808 787.368 618.013 778.408C638.854 763.107 657.679 743.045 652.757 708.263C651.96 702.632 650.529 696.839 647.794 692.321C640.373 680.063 632.139 676.379 620.495 676.379C602.264 676.379 590.538 694.627 583.269 714.64C568.068 756.487 564.46 809.789 580.787 851.741C587.644 869.36 599.434 886.352 615.531 890.002C622.908 891.674 630.803 890.016 637.867 886.813C654.046 879.477 662.553 864.999 672.611 848.552C682.909 831.714 684.689 826.941 692.465 810.292" fill="none" opacity="1" stroke="#000000" stroke-linecap="round" stroke-linejoin="round" stroke-width="30.8976"/>
<path d="M724.727 695.51C724.727 721.017 724.727 746.524 724.727 772.031C724.727 785.847 724.727 799.664 724.727 813.48C724.727 826.234 724.727 838.987 724.727 851.741C724.727 859.18 724.727 866.62 724.727 874.06C724.727 877.248 724.727 883.625 724.727 883.625C724.727 883.625 724.727 877.248 724.727 874.06C724.727 866.62 724.727 859.18 724.727 851.741C724.727 843.239 724.314 834.72 724.727 826.234C726.207 795.809 736.388 761.099 754.508 740.147C759.867 733.95 771.179 725.349 779.325 730.582C802.091 745.206 801.661 792.668 801.661 819.857C801.661 826.234 801.661 832.611 801.661 838.987C801.661 841.113 801.661 847.49 801.661 845.364C801.661 808.568 802.121 771.44 823.996 743.336C829.742 735.954 844.414 722.223 851.295 736.959C866.157 768.781 863.704 824.885 863.704 861.306" fill="none" opacity="1" stroke="#000000" stroke-linecap="round" stroke-linejoin="round" stroke-width="30.8976"/>
<path d="M913.339 711.452C918.119 736.017 919.849 762.759 920.784 787.973C921.177 798.589 920.784 809.229 920.784 819.857C920.784 828.887 918.978 850.289 923.265 861.306C924.005 863.207 923.265 857.055 923.265 854.929C923.265 847.49 923.265 840.05 923.265 832.611C923.265 823.045 922.396 813.415 923.265 803.915C924.959 785.422 940.21 729.68 958.01 727.394C963.017 726.75 968.971 726.544 972.9 730.582C978.108 735.935 980.485 744.878 982.827 752.901C991.059 781.105 990.272 812.662 990.272 842.176C990.272 844.301 990.272 837.925 990.272 835.799C990.272 828.359 989.507 820.855 990.272 813.48C991.174 804.793 993.201 796.338 995.236 787.973C1001.89 760.616 1018.02 724.519 1044.87 727.394C1070.59 730.147 1073.17 762.529 1077.13 787.973C1082.1 819.859 1080.55 857.33 1092.02 886.813" fill="none" opacity="1" stroke="#000000" stroke-linecap="round" stroke-linejoin="round" stroke-width="30.8976"/>
<path d="M1203.7 724.205C1197.02 707.032 1187.06 695.354 1171.44 698.698C1166.28 699.803 1160.73 701.042 1156.55 705.075C1133.72 727.07 1128 776.466 1129.25 810.292C1129.57 819.046 1129.95 828.955 1134.21 835.799C1137.48 841.048 1143.92 843.064 1149.1 842.176C1157.18 840.792 1165.12 836.023 1171.44 829.422C1178.76 821.781 1183.37 810.626 1188.81 800.727C1197.14 785.563 1202.68 767.719 1206.18 749.712C1207.84 741.21 1210.02 732.85 1211.15 724.205C1211.69 720.012 1210.1 707.419 1211.15 711.452C1222.42 754.911 1197.83 810.41 1235.96 838.987C1240.48 842.374 1245.63 844.885 1250.85 845.364C1257.51 845.975 1264.31 844.593 1270.71 842.176C1278.52 839.222 1285.6 833.673 1293.04 829.422" fill="none" opacity="1" stroke="#000000" stroke-linecap="round" stroke-linejoin="round" stroke-width="30.8976"/>
<path d="M1432.08 468.435C1427.22 518.537 1435.01 566.657 1441.29 617.036C1453.34 713.776 1468.36 810.03 1478.13 906.93C1480.72 932.68 1484.27 959.027 1484.27 984.885C1484.27 988.133 1484.72 978.369 1484.27 975.141C1482.67 963.727 1480.28 952.392 1478.13 941.035C1477.21 936.151 1476.08 931.291 1475.06 926.419" fill="none" opacity="1" stroke="#000000" stroke-linecap="round" stroke-linejoin="round" stroke-width="30.8976"/>
<path d="M1349.18 468.435C1358.22 454.091 1369.54 441.156 1389.09 434.33C1406.87 428.125 1425.76 424.141 1444.36 419.714C1456.48 416.827 1468.64 413.651 1481.2 412.405C1501.53 410.388 1522.82 405.727 1542.6 409.969C1562.61 414.259 1580.38 424.957 1594.79 436.766C1612.77 451.486 1626.23 469.593 1637.78 487.924C1645.89 500.794 1650.15 515.144 1653.13 529.337C1657.35 549.426 1661.24 569.934 1659.27 590.239C1658.1 602.276 1650.95 613.642 1643.92 624.345C1626.3 651.137 1607.33 677.491 1585.58 702.299C1574.42 715.035 1560.47 726.264 1545.67 736.404C1537.7 741.869 1527.96 745.773 1518.04 748.585C1505.47 752.146 1490.24 741.002 1484.27 731.532C1481.98 727.901 1483.35 723.347 1484.27 719.352C1489.53 696.399 1513.39 693.766 1539.53 697.427C1548.14 698.633 1557.23 700.436 1564.09 704.735C1577.17 712.926 1589.22 722.669 1597.86 733.968C1606.94 745.829 1610.31 759.905 1616.29 772.946C1623.08 787.763 1626.02 803.594 1628.57 819.231C1637.55 874.47 1637.78 929.33 1637.78 984.885" fill="none" opacity="1" stroke="#000000" stroke-linecap="round" stroke-linejoin="round" stroke-width="30.8976"/>
<path d="M1743.7 720.855C1739.91 722.142 1737.81 715.119 1736.02 711.48C1731.53 702.339 1735.75 696.429 1726.81 689.604C1718.62 683.354 1711.39 704.441 1708.39 714.605C1704.81 726.744 1703.28 739.478 1702.25 752.107C1701.23 764.564 1699.59 777.406 1702.25 789.609C1703.85 796.942 1708.3 804.327 1714.53 808.36C1728.77 817.584 1750.77 806.957 1763.65 795.859C1783.11 779.098 1788.33 749.881 1779 727.106C1776.71 721.499 1773.37 716.339 1769.79 711.48C1767.19 707.944 1764.89 702.653 1760.58 702.105C1755.11 701.409 1748.96 704.22 1745.23 708.355C1742.44 711.45 1747.61 719.528 1743.7 720.855Z" fill="none" opacity="1" stroke="#000000" stroke-linecap="round" stroke-linejoin="round" stroke-width="30.8976"/>
<path d="M1886.46 645.852C1886.46 641.578 1888.16 628.431 1880.32 627.101C1875.8 626.335 1870.78 629.624 1868.04 633.351C1856.84 648.556 1845.06 685.043 1840.41 702.105C1838.74 708.21 1834.55 715.188 1837.34 720.855C1839.8 725.873 1847.34 725.745 1852.69 727.106C1859.71 728.892 1867.08 728.786 1874.18 730.231C1908.35 737.188 1925.69 744.456 1920.23 783.359C1918.58 795.117 1906.33 802.467 1898.74 811.485C1892.6 818.777 1887.27 826.871 1880.32 833.361C1874.88 838.437 1868.04 841.695 1861.9 845.862C1858.83 847.945 1856.38 852.112 1852.69 852.112C1843.33 852.112 1854.86 824.904 1861.9 817.735" fill="none" opacity="1" stroke="#000000" stroke-linecap="round" stroke-linejoin="round" stroke-width="30.8976"/>
<path d="M1984.7 705.23C1986.75 706.271 1990.35 706.081 1990.84 708.355C1992.62 716.49 1990.84 725.022 1990.84 733.356C1990.84 767.217 1988.08 802.706 1990.84 836.486C1991.2 840.766 1990.14 847.066 1993.91 848.987C1996.81 850.46 1995.96 842.736 1996.98 839.611" fill="none" opacity="1" stroke="#000000" stroke-linecap="round" stroke-linejoin="round" stroke-width="30.8976"/>
<path d="M2003.13 614.6C2000.06 615.642 1996.98 616.684 1993.91 617.725" fill="none" opacity="1" stroke="#000000" stroke-linecap="round" stroke-linejoin="round" stroke-width="30.8976"/>
<path d="M2082.95 695.854C2082.95 716.715 2085 737.523 2086.02 758.357C2086.84 775.004 2086.02 791.692 2086.02 808.36C2086.02 811.485 2086.02 820.86 2086.02 817.735C2086.02 781.009 2089.02 738.876 2104.44 705.23C2110.7 691.581 2116.65 681.973 2132.07 680.228C2136.27 679.754 2141.72 680 2144.35 683.354C2150.65 691.365 2153.45 701.747 2156.63 711.48C2164.19 734.551 2166.54 759.16 2168.91 783.359C2169.84 792.745 2171.32 802.076 2171.98 811.485C2172.35 816.68 2170.37 822.169 2171.98 827.111C2172.71 829.32 2176.08 829.194 2178.12 830.236" fill="none" opacity="1" stroke="#000000" stroke-linecap="round" stroke-linejoin="round" stroke-width="30.8976"/>
<path d="M2334.7 639.601C2332.56 636.337 2326.98 623.651 2319.35 627.101C2312.05 630.405 2305.84 636.304 2300.93 642.727C2291.34 655.278 2284.32 669.664 2276.37 683.354C2266.22 700.835 2255.12 712.326 2261.02 733.356C2270.05 765.533 2303.18 770.136 2322.42 792.734C2329.32 800.839 2335 810.513 2337.77 820.86C2341.28 833.964 2343.04 848.09 2340.84 861.487C2338.81 873.903 2332.47 885.476 2325.49 895.864C2302.7 929.771 2258.8 946.778 2227.25 970.868" fill="none" opacity="1" stroke="#000000" stroke-linecap="round" stroke-linejoin="round" stroke-width="30.8976"/>
</g>
<g clip-path="url(#ArtboardFrame)" id="Layer-2" vectornator:layerName="Layer 2">
<path d="M1578.46-836.219C1574.32-838.287 1570.61-843.184 1566.05-842.424C1563.33-841.97 1566.05-836.908 1566.05-834.151" fill="none" opacity="1" stroke="#000000" stroke-linecap="round" stroke-linejoin="round" stroke-width="30.8976"/>
<path d="M444.68 530.542C448.709 359.359 115.986 508.199 181.903 786.069C219.026 942.561 387.353 890.707 444.265 781.797C446.405 777.702 463.373 753.991 453.31 747.922" fill="none" opacity="1" stroke="#000000" stroke-linecap="round" stroke-linejoin="round" stroke-width="30.8976"/>
<path d="M394.654 740.493C359.277 732.548 486.168 657.948 492.8 693.595C496.022 710.911 447.43 1108.89 521.881 941.421" fill="none" opacity="1" stroke="#000000" stroke-linecap="round" stroke-linejoin="round" stroke-width="30.8976"/>
<path d="M548.1 773.52C521.457 892.147 760.992 705.048 647.284 670.84C529.932 635.535 608.871 1025.54 690.746 809.866" fill="none" opacity="1" stroke="#000000" stroke-linecap="round" stroke-linejoin="round" stroke-width="30.8976"/>
<path d="M722.457 700.649C718.8 766.151 728.422 832.664 726.874 898.412" fill="none" opacity="1" stroke="#000000" stroke-linecap="round" stroke-linejoin="round" stroke-width="30.8976"/>
<path d="M726.341 769.364C730.008 764.981 731.742 756.329 735.384 752.95C741.118 747.63 747.758 743.353 754.3 739.065C757.465 736.99 773.763 730.329 776.733 732.814C782.732 737.833 787.882 743.937 792.208 750.454C794.232 753.503 795.046 757.313 795.412 760.954C796.677 773.53 796.55 786.208 797.076 798.837C797.607 811.567 797.654 821.389 797.464 835.131C797.444 836.572 795.562 839.273 796.995 839.429C799.266 839.677 799.816 826.869 800.931 816.658C802.235 804.717 802.878 792.685 804.842 780.834C808.69 757.618 827.712 745.006 848.538 739.203C857.306 736.76 863.982 754.344 865.29 758.432C870.905 775.993 869.948 800.179 868.906 818.279C868.188 830.761 866.917 843.207 866.272 855.693C865.58 869.074 864.624 884.729 867.467 897.875" fill="none" opacity="1" stroke="#000000" stroke-linecap="round" stroke-linejoin="round" stroke-width="30.8976"/>
<path d="M913.26 704.217C915.483 743.585 925.147 781.585 925.105 821.514C925.083 842.265 923.863 863.009 924.11 883.758C924.184 889.991 926.068 885.481 926.976 884.071" fill="none" opacity="1" stroke="#000000" stroke-linecap="round" stroke-linejoin="round" stroke-width="30.8976"/>
<path d="M923.572 769.145C925.732 749.359 939.638 733.553 956.118 723.397C959.001 721.619 971.209 719.007 973.626 722.408C991.837 748.03 990.784 771.63 992.405 802.761C992.78 809.974 990.978 817.207 991.491 824.412C991.632 826.388 992.187 828.322 992.298 830.3C992.352 831.26 991.795 834.108 991.985 833.166C998.374 801.551 1004.27 773.057 1016.33 743.02C1018.85 736.745 1027.57 719.895 1037.15 724.992C1071.01 743.023 1063.06 821.705 1069.39 854.667C1072.46 870.639 1074.33 890.65 1093.8 883.433" fill="none" opacity="1" stroke="#000000" stroke-linecap="round" stroke-linejoin="round" stroke-width="30.8976"/>
<path d="M1204.58 712.096C1146.09 708.561 1087.1 797.454 1165.19 840.475C1186.8 852.379 1256.78 715.25 1204.58 712.096Z" fill="none" opacity="1" stroke="#000000" stroke-linecap="round" stroke-linejoin="round" stroke-width="30.8976"/>
<path d="M1228.96 721.282C1247.41 771.067 1240.4 926.907 1328.16 822.016" fill="none" opacity="1" stroke="#000000" stroke-linecap="round" stroke-linejoin="round" stroke-width="30.8976"/>
<path d="M1423.28 430.3C1391.7 657.466 1490.24 897.116 1438.15 1128.64" fill="none" opacity="1" stroke="#000000" stroke-linecap="round" stroke-linejoin="round" stroke-width="30.8976"/>
<path d="M1343.95 471.416C1437.74 334.848 1673.65 346.686 1681.89 533.732C1687.88 669.657 1452.27 873.076 1406.61 737.779C1372.46 636.612 1526.73 650.649 1568.23 700.435C1649.72 798.197 1601.18 923.15 1657.96 1025.77" fill="none" opacity="1" stroke="#000000" stroke-linecap="round" stroke-linejoin="round" stroke-width="30.8976"/>
<path d="M1733.65 701.961C1725.58 658.524 1633.48 837.971 1742.46 815.141C1911.24 779.779 1668.03 684.256 1712.25 723.524" fill="none" opacity="1" stroke="#000000" stroke-linecap="round" stroke-linejoin="round" stroke-width="30.8976"/>
<path d="M1902.72 644.18C1875.57 563.758 1824.1 667.576 1827.56 710.415C1831.86 763.609 1940.05 718.482 1905.91 808.725C1867.12 911.286 1836.17 838.905 1837.28 839.059" fill="none" opacity="1" stroke="#000000" stroke-linecap="round" stroke-linejoin="round" stroke-width="30.8976"/>
<path d="M1978.15 708.344C2009.52 729.887 1998.38 860.887 2000.2 858.639" fill="none" opacity="1" stroke="#000000" stroke-linecap="round" stroke-linejoin="round" stroke-width="30.8976"/>
<path d="M1996.01 601.938L1995.38 606.451L1994.96 609.46L1994.12 615.479L1994.12 615.479" fill="none" opacity="1" stroke="#000000" stroke-linecap="round" stroke-linejoin="round" stroke-width="30.8976"/>
<path d="M2064.87 691.261C2086.87 736.823 2061.78 889.153 2080.69 842.224" fill="none" opacity="1" stroke="#000000" stroke-linecap="round" stroke-linejoin="round" stroke-width="30.8976"/>
<path d="M2081.38 738.031C2194.75 652.334 2160.91 869.425 2178.66 843.574" fill="none" opacity="1" stroke="#000000" stroke-linecap="round" stroke-linejoin="round" stroke-width="30.8976"/>
<path d="M2260.01 640.214C2282.71 583.884 2172.59 622.766 2194.76 712.427C2213.42 787.927 2287.69 813.077 2259.51 908.534C2247.47 949.323 2132.05 1009.07 2142.11 936.689" fill="none" opacity="1" stroke="#000000" stroke-linecap="round" stroke-linejoin="round" stroke-width="30.8976"/>
</g>
</svg>
