<?xml version="1.0" encoding="UTF-8" standalone="no"?>
<!DOCTYPE svg PUBLIC "-//W3C//DTD SVG 1.1//EN" "http://www.w3.org/Graphics/SVG/1.1/DTD/svg11.dtd">
<!-- Created with Vectornator (http://vectornator.io/) -->
<svg height="100%" stroke-miterlimit="10" style="fill-rule:nonzero;clip-rule:evenodd;stroke-linecap:round;stroke-linejoin:round;" version="1.1" viewBox="0 0 288 288" width="100%" xml:space="preserve" xmlns="http://www.w3.org/2000/svg" xmlns:vectornator="http://vectornator.io" xmlns:xlink="http://www.w3.org/1999/xlink">
<defs/>
<g id="Layer-2" vectornator:layerName="Layer 2">
<path d="M31.2444 151.417C35.5111 145.017 40.8545 141.423 46.4782 136.183C56.2119 127.113 65.9562 118.101 76.555 110.012C78.9378 108.194 81.3788 106.43 83.9765 104.934C85.6952 103.945 87.5636 103.218 89.445 102.591C90.3185 102.3 91.3558 101.788 92.1793 102.2C93.0555 102.638 92.3015 106.981 91.7887 108.841C89.9488 115.51 88.6681 116.75 85.539 123.293C79.8774 135.131 74.376 146.98 67.9616 158.448C63.8676 165.767 59.547 173.004 56.2434 180.712C54.1835 185.519 52.4337 190.482 51.1654 195.556C50.9444 196.44 50.2812 198.511 51.1654 198.29C52.6865 197.91 53.3171 196.004 54.2903 194.774C57.2188 191.075 60.1182 187.344 63.2743 183.837C66.4208 180.341 69.5975 176.87 72.6489 173.291C88.4223 154.787 103.951 136.151 119.912 117.825C124.346 112.735 129.798 107.706 135.537 104.153C139.966 101.411 141.602 101.403 141.787 101.81C144.048 106.786 138.774 118.625 136.709 122.512C134.822 126.063 132.964 129.638 130.849 133.058C128.533 136.806 125.695 140.217 123.428 143.995C119.413 150.687 116.661 158.059 113.272 165.088C109.175 173.585 104.323 181.738 100.773 190.478C99.3314 194.025 98.32 197.736 97.2572 201.415C96.6261 203.599 96.1015 205.818 95.6948 208.055C95.3683 209.85 94.772 214.65 96.476 215.867C98.8141 217.537 101.03 212.449 103.116 209.617C110.748 199.261 116.927 188.273 123.428 177.197C127.499 170.26 131.669 163.357 135.146 156.104C137.415 151.371 139.071 146.357 141.396 141.652C146.606 131.104 152.89 121.093 157.801 110.403C165.689 93.2358 172.896 75.8016 182.8 59.6239C187.903 51.2892 191.826 46.4133 197.643 38.5311C200.235 35.0206 203.438 30.0024 206.627 26.8129C210.428 23.0125 211.961 23.0267 212.096 23.2974C212.807 24.7189 210.273 25.9014 209.362 27.2035C208.285 28.7418 207.14 30.2443 206.237 31.8908C203.045 37.712 200.995 44.128 197.643 49.8587C194.325 55.5319 190.018 60.5872 186.706 66.2643C178.691 80.0051 169.749 93.5297 162.489 107.669C149.483 132.996 138.256 159.073 126.553 185.009C121.741 195.674 117.562 206.283 117.959 218.211C118.004 219.538 118.004 221.012 118.741 222.117C120.641 224.967 124.542 220.29 124.99 219.773C130.147 213.824 132.319 209.423 135.927 202.586C146.433 182.68 157.711 163.56 171.863 145.948C174.411 142.778 177.148 139.761 179.675 136.574C181.718 133.999 183.03 130.887 185.144 128.371C186.271 127.03 187.625 125.874 189.05 124.855C189.487 124.543 190.733 123.942 190.613 124.465C189.329 130.025 185.422 134.63 182.8 139.699C177.7 149.56 171.348 157.249 165.223 166.651C154.619 182.927 146.022 199.97 139.443 218.211C138.13 221.852 136.738 225.468 135.537 229.148C134.55 232.169 132.564 237.838 132.803 241.647C132.846 242.347 132.945 243.31 133.584 243.6C137.578 245.416 139.275 241.18 141.396 238.913C143.724 236.424 146.218 234.087 148.427 231.491C151.432 227.961 154.255 224.276 157.02 220.554C160.207 216.264 162.723 211.493 166.004 207.274C176.26 194.088 186.785 181.159 196.862 167.822C203.567 158.949 209.632 150.366 217.564 142.433C225.422 134.576 233.262 127.92 241.782 120.949C245.371 118.013 248.97 115.083 252.719 112.356C253.713 111.634 254.791 111.035 255.844 110.403C256.094 110.253 256.831 109.806 256.625 110.012C254.915 111.722 251.907 112.449 249.985 113.918C247.932 115.488 245.906 117.123 244.126 118.996C234.74 128.876 227.707 139.28 219.518 150.245C215.916 155.067 211.663 159.391 208.19 164.307C198.467 178.066 190.131 193.512 181.629 208.055C179.509 211.68 177.425 215.326 175.379 218.992C173.202 222.892 171.279 226.605 169.52 230.71C169.047 231.814 167.778 233.505 168.738 234.226C170.561 235.592 173.046 232.377 174.598 230.71C176.87 228.27 178.757 225.497 180.847 222.898C188.949 212.826 197.562 203.215 207.409 194.774C210.929 191.757 214.649 188.979 218.346 186.181C220.217 184.765 222.925 182.948 223.424 183.447C224.13 184.153 221.275 187.646 219.908 190.087C218.77 192.119 217.891 194.288 216.783 196.337C212.495 204.271 208.345 211.905 204.674 220.164C203.133 223.633 201.002 226.966 200.378 230.71C200.075 232.527 199.825 234.352 199.597 236.179C199.497 236.974 198.359 240.28 199.987 241.257C201.676 242.27 203.803 240.008 204.674 239.304C207.269 237.208 209.866 235.117 212.487 233.054C215.986 230.299 219.414 227.447 223.033 224.851C225.41 223.146 227.858 221.512 230.455 220.164C235.685 217.448 244.74 213.717 250.766 211.18" fill="none" opacity="1" stroke="#ffdce3" stroke-linecap="round" stroke-linejoin="round" stroke-width="17.2388"/>
</g>
<g id="Layer-1" vectornator:layerName="Layer 1">
<path d="M115.27 103.427C74.0535 103.427 40.4057 151.552 55.2697 190.427C62.6675 209.775 80.9391 223.414 98.9061 232.155C138.002 251.174 183.951 262.411 219.179 229.7C242.24 208.286 233.138 170.929 216.452 148.973C188.48 112.168 143.657 87.0317 98.0879 108.064" fill="none" opacity="1" stroke="#000000" stroke-linecap="round" stroke-linejoin="round" stroke-width="6.49565"/>
<path d="M144.452 100.427C144.452 92.2723 151.306 81.2231 155.088 74.5182C163.926 58.8512 172.174 43.2213 186.452 31.9727C190.958 28.4226 194.682 25.5205 200.088 23.5182C203.306 22.3263 205.955 21.4221 209.361 21.0636C233.874 18.4832 208.055 49.3417 202.815 57.0636C198.59 63.2899 193.736 69.813 188.906 75.6091C181.251 84.7955 173.901 96.069 165.452 104.518" fill="none" opacity="1" stroke="#000000" stroke-linecap="round" stroke-linejoin="round" stroke-width="6.49565"/>
<path d="M203.088 128.791C216.887 114.992 234.073 100.476 254.633 98.5182C264.459 97.5825 280.362 100.743 274.815 114.609C268.152 131.266 248.689 137.611 233.633 144.064C229.72 145.741 223.947 146.659 220.815 149.791" fill="none" opacity="1" stroke="#000000" stroke-linecap="round" stroke-linejoin="round" stroke-width="6.49565"/>
<path d="M134.633 152.791L134.361 153.882L134.088 154.7L133.815 155.518L133.542 156.064L133.542 156.882L133.27 157.427L133.27 157.427" fill="none" opacity="1" stroke="#000000" stroke-linecap="round" stroke-linejoin="round" stroke-width="6.49565"/>
<path d="M167.906 172.427C166.719 173.615 164.531 175.087 163.815 176.518" fill="none" opacity="1" stroke="#000000" stroke-linecap="round" stroke-linejoin="round" stroke-width="6.49565"/>
<path d="M141.724 181.427L141.179 181.7L140.906 182.245L140.361 183.336L140.088 183.882L140.088 184.427L140.088 184.427" fill="none" opacity="1" stroke="#000000" stroke-linecap="round" stroke-linejoin="round" stroke-width="6.49565"/>
<path d="M134.088 193.427C122.725 199.109 111.095 204.378 99.7242 210.064" fill="none" opacity="1" stroke="#000000" stroke-linecap="round" stroke-linejoin="round" stroke-width="6.49565"/>
<path d="M135.724 195.064C135.724 206.692 137.633 218.508 137.633 229.973" fill="none" opacity="1" stroke="#000000" stroke-linecap="round" stroke-linejoin="round" stroke-width="6.49565"/>
<path d="M156.179 102.609C156.179 97.7484 160.046 92.2459 161.633 87.8818C169.855 65.2726 186.742 51.0393 200.633 32.5182" fill="none" opacity="1" stroke="#000000" stroke-linecap="round" stroke-linejoin="round" stroke-width="6.49565"/>
<path d="M212.633 141.064C222.813 130.884 238.518 126.54 251.361 121.155C255.586 119.383 261.691 114.882 266.361 114.882" fill="none" opacity="1" stroke="#000000" stroke-linecap="round" stroke-linejoin="round" stroke-width="6.49565"/>
</g>
</svg>
