<?xml version="1.0" encoding="UTF-8" standalone="no"?>
<!DOCTYPE svg PUBLIC "-//W3C//DTD SVG 1.1//EN" "http://www.w3.org/Graphics/SVG/1.1/DTD/svg11.dtd">
<!-- Created with Vectornator (http://vectornator.io/) -->
<svg height="100%" stroke-miterlimit="10" style="fill-rule:nonzero;clip-rule:evenodd;stroke-linecap:round;stroke-linejoin:round;" version="1.1" viewBox="0 0 288 288" width="100%" xml:space="preserve" xmlns="http://www.w3.org/2000/svg" xmlns:vectornator="http://vectornator.io" xmlns:xlink="http://www.w3.org/1999/xlink">
<defs/>
<clipPath id="ArtboardFrame">
<rect height="288" width="288" x="0" y="0"/>
</clipPath>
<g clip-path="url(#ArtboardFrame)" id="Layer-2" vectornator:layerName="Layer 2">
<path d="M221.388 335.806C220.639 335.432 219.694 335.853 218.893 336.1C218.684 336.164 219.263 336.419 219.48 336.393C220.141 336.315 221.984 336.104 221.388 335.806Z" fill="none" opacity="1" stroke="#ff422e" stroke-linecap="round" stroke-linejoin="round" stroke-width="17.2388"/>
<path d="M55.7017 188.111C55.5418 188.43 54.8645 189.07 55.222 189.07C55.6743 189.07 55.9324 188.488 56.1814 188.111C60.8942 180.965 65.7629 173.91 70.0916 166.526C73.9254 159.986 76.6178 152.803 80.6443 146.38C83.3631 142.042 86.8367 138.214 90.2376 134.388C91.9668 132.443 93.9528 130.727 95.9935 129.112C97.8015 127.68 99.5455 124.596 101.75 125.274C103.59 125.841 102.627 129.147 102.229 131.03C100.209 140.593 97.1139 149.898 94.5545 159.331C89.2539 178.867 83.6969 198.397 80.1646 218.329C79.4344 222.45 78.9577 226.622 78.7256 230.801C78.6365 232.405 78.069 236.734 79.2053 235.597C81.9861 232.816 82.7783 228.589 84.4816 225.045C88.6944 216.277 92.9716 207.538 96.9529 198.663C100.648 190.426 103.435 181.778 107.505 173.721C111.289 166.231 116.194 159.363 120.456 152.136C123.549 146.891 125.946 141.199 129.57 136.307C132.396 132.491 134.918 126.706 139.643 126.234C142.67 125.931 139.941 132.406 139.163 135.347C136.243 146.395 132.048 157.066 128.611 167.965C125.492 177.853 122.225 187.701 119.497 197.704C117.905 203.543 116.635 209.478 115.66 215.451C115.351 217.345 115.523 219.294 115.66 221.207C115.685 221.564 115.79 222.244 116.139 222.167C121.292 221.022 123.182 214.071 125.253 209.216C128.293 202.088 130.582 194.64 133.887 187.631C137.416 180.148 141.113 172.738 144.976 165.412C152.91 150.363 161.538 135.671 170.821 121.437C174.263 116.159 177.977 111.055 181.853 106.088C183.106 104.484 184.868 100.208 186.17 101.771C187.759 103.678 185.108 106.636 184.252 108.966C181.107 117.521 177.63 125.952 174.179 134.388C168.996 147.058 162.828 159.346 158.35 172.282C154.176 184.341 151.677 196.916 148.277 209.216C146.241 216.582 143.895 223.866 142.041 231.28C141.334 234.111 139.946 237.071 140.602 239.914C140.883 241.131 142.893 238.618 143.48 237.516C146.781 231.328 149.426 224.807 152.114 218.329C156.463 207.854 159.925 197.012 164.586 186.672C175.497 162.461 188.517 139.088 203.438 117.12C207.662 110.902 212.477 105.097 217.349 99.3726C218.889 97.5624 222.091 92.2599 222.625 94.5759C223.5 98.3697 220.179 101.972 218.788 105.608C215.222 114.925 211.192 124.063 207.755 133.429C198.646 158.258 190.682 183.501 181.374 208.256C178.344 216.316 174.684 224.134 171.781 232.24C170.839 234.868 169.234 237.673 169.862 240.394C170.152 241.65 172.446 239.507 173.22 238.475C176.84 233.648 179.684 228.285 182.813 223.126C188.798 213.255 194.435 203.172 200.56 193.387C210.591 177.365 221.099 161.467 233.657 147.339C235.236 145.562 236.628 141.966 238.934 142.542C240.852 143.022 238.139 146.429 237.495 148.298C234.938 155.711 232.367 163.129 229.34 170.363C225.806 178.81 221.295 186.83 217.828 195.305C215.531 200.921 213.499 206.676 212.072 212.573C211.088 216.641 210.529 220.861 210.633 225.045C210.692 227.372 210.703 230.346 212.552 231.76C214.208 233.026 217.359 232.798 218.788 231.28C222.96 226.847 224.999 220.804 227.901 215.451C232.196 207.53 236.02 199.358 240.373 191.468C243.221 186.305 247.94 182.42 251.885 178.038" fill="none" opacity="1" stroke="#f60d0d" stroke-linecap="round" stroke-linejoin="round" stroke-width="17.2388"/>
<path d="M61.4577 132.949C65.0304 124.017 70.8749 114.494 75.3679 106.088C79.925 97.5617 85.2898 89.3622 91.6765 82.1046C93.1703 80.4071 94.51 78.4298 96.4732 77.308C97.6179 76.6538 99.7491 75.1557 100.311 76.3487C101.604 79.0974 100.613 82.4395 100.311 85.4623C99.8109 90.458 98.8968 95.4088 97.9122 100.332C95.8577 110.604 92.7649 120.672 89.2782 130.551C88.0325 134.08 86.5863 137.54 85.4409 141.103C85.1433 142.029 84.2141 144.604 84.9612 143.981C86.5627 142.647 87.2744 140.509 88.3189 138.705C90.7932 134.431 93.3548 130.196 95.5139 125.754C98.9561 118.673 101.857 111.341 105.107 104.169C108.129 97.5002 112.267 91.3503 116.619 85.4623C119.68 81.3217 122.46 76.9655 125.733 72.991C126.957 71.5048 129.189 67.4316 130.05 69.1537C131.629 72.3128 129.681 76.2239 129.09 79.7063C126.821 93.0946 123.12 106.203 120.456 119.518C119.534 124.132 118.515 128.746 118.058 133.429C117.871 135.345 117.259 137.746 118.538 139.185C119.347 140.095 121.171 138.724 121.895 137.746C124.493 134.239 126.246 130.17 128.131 126.234C138.152 105.307 146.434 83.3997 158.35 63.3977C159.335 61.7437 160.725 57.8278 162.187 59.0807C164.012 60.645 162.281 63.9414 161.708 66.2757C160.031 73.1024 157.443 79.674 155.472 86.4216C153.286 93.9057 151.288 101.444 149.236 108.966C147.261 116.207 144.537 124.387 145.879 131.99C146.516 135.599 151.809 129.055 153.074 126.713C156.107 121.097 157.504 114.72 160.269 108.966C163.43 102.387 167.132 96.0775 170.821 89.7793C175.125 82.4321 178.972 74.4679 185.211 68.674C185.582 68.33 186.67 68.6484 186.65 69.1537C186.495 73.1987 185.525 77.1759 184.731 81.1453C183.422 87.6946 179.796 94.2234 180.894 100.812C180.963 101.223 184.659 101.623 186.65 99.3726C189.68 95.9475 192.173 92.08 194.804 88.3403C198.25 83.4443 201.52 78.4272 204.877 73.4707" fill="none" opacity="1" stroke="#009a13" stroke-linecap="round" stroke-linejoin="round" stroke-width="17.2388"/>
</g>
<g clip-path="url(#ArtboardFrame)" id="Layer-1" vectornator:layerName="Layer 1">
<path d="M251.057-76.0808C249.239-76.8081 249.875-77.0808 249.148-75.2626" fill="none" opacity="1" stroke="#000000" stroke-linecap="round" stroke-linejoin="round" stroke-width="6.49565"/>
<path d="M81.4204 98.8737C74.4156 94.8071 69.7929 121.591 69.4204 125.192C66.7753 150.761 72.7268 175.052 86.8749 196.646C114.362 238.601 174.776 267.783 214.511 223.374C241.211 193.533 246.689 132.116 225.42 97.6465C211.129 74.4847 182.005 63.9687 156.148 62.7374C137.272 61.8385 117.845 65.1403 101.875 75.5556C96.001 79.3864 89.4448 85.3833 85.784 91.3737C84.6549 93.2215 83.5263 100.096 81.4204 98.8737Z" fill="none" opacity="1" stroke="#000000" stroke-linecap="round" stroke-linejoin="round" stroke-width="6.49565"/>
<path d="M125.602 87.5556C125.602 88.2753 116.584 75.1882 115.511 72.8283C109.44 59.4704 107.441 43.3621 110.329 28.9192" fill="none" opacity="1" stroke="#000000" stroke-linecap="round" stroke-linejoin="round" stroke-width="6.49565"/>
<path d="M72.9658 127.374C72.9658 126.879 72.2336 124.101 71.8749 124.101C71.2386 124.101 71.8749 125.374 71.8749 126.01C71.8749 129.088 72.609 131.58 73.784 134.465C75.8097 139.437 79.5953 146.601 84.9658 148.646C94.7009 152.355 99.9455 143.94 103.784 136.646C104.843 134.634 105.726 132.323 106.239 130.101C106.427 129.284 105.946 127.646 106.784 127.646C108.455 127.646 110.846 134.838 111.42 136.101C114.139 142.082 120.696 154.373 129.693 151.374C138.032 148.594 140.868 138.189 141.148 130.646C141.166 130.153 141.265 119.166 141.42 119.192C143.319 119.508 145.515 124.451 146.057 125.192C150.551 131.342 157.796 137.88 165.966 134.737C181.33 128.828 171.796 111.025 176.057 100.374C176.769 98.5932 179.358 102.329 180.966 103.374C184.248 105.507 188.413 107.335 192.42 107.192C203.252 106.805 209.337 95.4436 207.148 85.3737C206.44 82.1164 203.895 79.9597 202.511 77.1919" fill="none" opacity="1" stroke="#000000" stroke-linecap="round" stroke-linejoin="round" stroke-width="6.49565"/>
<path d="M93.4204 168.828C94.9848 171.175 95.6011 174.554 97.5113 176.465" fill="none" opacity="1" stroke="#000000" stroke-linecap="round" stroke-linejoin="round" stroke-width="6.49565"/>
<path d="M125.875 166.101C126.576 168.903 128.783 171.191 130.784 173.192" fill="none" opacity="1" stroke="#000000" stroke-linecap="round" stroke-linejoin="round" stroke-width="6.49565"/>
<path d="M157.511 158.737C158.693 161.101 160.017 163.152 161.875 165.01" fill="none" opacity="1" stroke="#000000" stroke-linecap="round" stroke-linejoin="round" stroke-width="6.49565"/>
<path d="M185.329 143.192C186.682 145.221 188.562 147.184 190.511 148.646" fill="none" opacity="1" stroke="#000000" stroke-linecap="round" stroke-linejoin="round" stroke-width="6.49565"/>
<path d="M212.602 118.646C214.191 121.825 215.969 124.311 216.42 127.919" fill="none" opacity="1" stroke="#000000" stroke-linecap="round" stroke-linejoin="round" stroke-width="6.49565"/>
<path d="M121.784 199.374C124.659 202.249 127.393 205.451 131.057 207.283" fill="none" opacity="1" stroke="#000000" stroke-linecap="round" stroke-linejoin="round" stroke-width="6.49565"/>
<path d="M159.42 193.101C160.079 195.735 160.866 198.337 163.239 199.919" fill="none" opacity="1" stroke="#000000" stroke-linecap="round" stroke-linejoin="round" stroke-width="6.49565"/>
<path d="M185.875 183.828C186.833 186.222 188.084 188.635 189.693 190.646" fill="none" opacity="1" stroke="#000000" stroke-linecap="round" stroke-linejoin="round" stroke-width="6.49565"/>
<path d="M213.42 168.01C214.467 171.151 213.693 174.341 213.693 177.556" fill="none" opacity="1" stroke="#000000" stroke-linecap="round" stroke-linejoin="round" stroke-width="6.49565"/>
<path d="M159.693 225.828C163.108 226.967 166.279 228.645 169.784 229.646" fill="none" opacity="1" stroke="#000000" stroke-linecap="round" stroke-linejoin="round" stroke-width="6.49565"/>
<path d="M187.784 219.01L188.057 219.828L189.148 221.192L190.239 221.737L190.239 221.737" fill="none" opacity="1" stroke="#000000" stroke-linecap="round" stroke-linejoin="round" stroke-width="6.49565"/>
<path d="M209.057 204.283C208.492 206.731 208.03 209.21 207.42 211.646" fill="none" opacity="1" stroke="#000000" stroke-linecap="round" stroke-linejoin="round" stroke-width="6.49565"/>
</g>
</svg>
