<?xml version="1.0" encoding="UTF-8" standalone="no"?>
<!DOCTYPE svg PUBLIC "-//W3C//DTD SVG 1.1//EN" "http://www.w3.org/Graphics/SVG/1.1/DTD/svg11.dtd">
<!-- Created with Vectornator (http://vectornator.io/) -->
<svg height="100%" stroke-miterlimit="10" style="fill-rule:nonzero;clip-rule:evenodd;stroke-linecap:round;stroke-linejoin:round;" version="1.1" viewBox="0 0 288 288" width="100%" xml:space="preserve" xmlns="http://www.w3.org/2000/svg" xmlns:vectornator="http://vectornator.io" xmlns:xlink="http://www.w3.org/1999/xlink">
<defs/>
<clipPath id="ArtboardFrame">
<rect height="288" width="288" x="0" y="0"/>
</clipPath>
<g clip-path="url(#ArtboardFrame)" id="Layer-2" vectornator:layerName="Layer 2">
<path d="M239.245-147.084C234.724-145.693 231.047-145.76 231.047-140.333" fill="none" opacity="1" stroke="#cf7b31" stroke-linecap="round" stroke-linejoin="round" stroke-width="14.5726"/>
<path d="M10.8124 129.043C12.7573 123.209 16.2492 118.869 19.2343 113.495C20.6413 110.963 21.4688 108.101 23.1214 105.721C26.8918 100.292 31.152 95.212 35.4303 90.1731C35.4615 90.1363 39.1271 87.019 39.9651 88.2296C40.8343 89.4851 40.7467 91.2434 40.613 92.7645C39.8788 101.116 38.8036 109.445 37.3738 117.706C34.4247 134.746 28.787 150.681 25.7127 167.59C24.5486 173.992 24.3261 182.91 24.0931 188.968C24.0475 190.155 23.8211 191.375 24.0931 192.532C24.2714 193.289 24.8557 195.043 25.3888 194.475C34.8496 184.404 37.5411 172.406 43.2043 160.464C46.5981 153.307 50.4092 146.354 54.2176 139.409C64.8088 120.095 77.1615 103.586 91.4683 86.9339C96.5471 81.0225 101.74 75.186 107.34 69.7662C107.837 69.2854 108.342 68.1614 108.96 68.4706C109.643 68.812 109.448 69.9923 109.284 70.738C108.248 75.4457 106.766 80.0449 105.397 84.6665C104.174 88.7919 102.798 92.8702 101.51 96.9754C98.1554 107.663 94.7972 118.348 91.4683 129.043C88.078 139.935 84.2169 150.698 81.4268 161.759C77.8528 175.927 76.0154 190.478 73.3288 204.84C71.9505 212.209 70.0928 219.484 68.7939 226.867C68.0398 231.154 67.4031 235.477 67.1743 239.824C67.0772 241.669 66.9459 243.703 67.8222 245.33C68.59 246.756 70.1579 247.78 71.7092 248.246C74.0675 248.953 76.0792 245.693 77.5397 243.711C79.6181 240.89 81.6449 238.014 83.3703 234.965C86.2951 229.795 89.0105 224.5 91.4683 219.093C94.9533 211.426 98.0393 203.583 101.186 195.771C111.642 169.812 121.664 143.853 133.254 118.354C139.638 104.309 148.507 91.5312 156.252 78.1881C162.581 67.2845 168.96 56.2169 177.307 46.768C179.885 43.8491 182.651 41.0999 185.405 38.3461C185.68 38.0708 185.994 37.6265 186.377 37.6983C187.855 37.9754 190.445 37.8207 190.587 39.3178C190.977 43.4108 188.748 47.3345 187.672 51.3029C185.616 58.8897 183.555 66.4796 181.194 73.9772C177.399 86.0271 173.407 98.017 169.209 109.932C165.416 120.695 161.273 131.331 157.224 142C154.47 149.255 151.075 156.283 148.802 163.703C145.342 174.995 143.007 186.602 140.056 198.038C137.033 209.753 134.205 218.361 132.606 230.43C132.152 233.857 132.189 237.34 132.282 240.795C132.298 241.377 132.592 241.942 132.93 242.415C134.023 243.946 136.554 242.605 137.465 241.767C139.34 240.042 140.905 237.914 142 235.613C145.143 229.004 147.305 221.97 150.098 215.206C155.393 202.38 160.166 189.343 164.998 176.336C173.572 153.253 182.237 130.499 192.855 108.313C199.822 93.7538 206.132 78.5121 216.177 65.8792C219.456 61.7554 223.185 57.9648 227.19 54.542C230.133 52.0276 234.084 49.2481 237.88 50.0072C238.497 50.1306 238.95 51.005 238.851 51.6268C238.168 55.9199 236.761 60.0669 235.612 64.2596C234.601 67.9502 233.538 71.628 232.373 75.2729C229.327 84.8021 226.091 94.2697 222.979 103.778C214.401 129.988 206.013 154.714 200.305 181.518C198.217 191.321 197.363 200.375 196.094 210.347C195.226 217.168 194.582 224.811 195.446 231.726C195.548 232.542 195.6 233.911 196.418 233.993C198.704 234.222 200.227 228.072 201.277 224.923C202.314 221.813 203.114 218.626 204.192 215.53C206.462 209.014 208.998 202.593 211.318 196.095C218.044 177.263 225.187 160.931 233.669 142.648C234.177 141.553 234.639 140.426 235.288 139.409C240.365 131.458 245.604 123.612 250.836 115.763C252.73 112.922 254.481 109.964 256.667 107.341C258.281 105.404 260.184 103.706 262.174 102.158C263.126 101.417 264.31 100.048 265.413 100.539C266.306 100.936 265.332 102.507 265.089 103.454C264.357 106.298 263.368 109.07 262.497 111.876C260.088 119.639 257.029 127.24 255.371 135.198C250.798 157.149 246.302 178.808 246.302 201.277C246.302 203.005 246.238 204.734 246.302 206.46C246.346 207.652 246.566 208.832 246.625 210.023C246.674 210.994 246.086 212.13 246.625 212.938C246.925 213.388 247.607 212.406 247.921 211.967C248.707 210.866 249.204 209.584 249.865 208.404C250.715 206.885 251.441 205.283 252.456 203.869C255.012 200.306 257.769 196.889 260.554 193.503C265.652 187.305 271.192 181.477 276.75 175.688" fill="none" opacity="1" stroke="#cf7b31" stroke-linecap="round" stroke-linejoin="round" stroke-width="14.5726"/>
<path d="M53.5697 204.517C53.5697 201.676 54.0726 198.822 54.8654 196.095C57.0393 188.617 59.1382 181.11 61.6677 173.744C62.8144 170.405 64.4409 167.251 65.8787 164.027C71.5672 151.271 76.9 138.346 83.0464 125.804C84.9049 122.012 87.4686 118.604 89.8487 115.115C96.9719 104.673 104.204 94.3044 111.551 84.0187C112.845 82.2074 114.157 80.3781 115.762 78.836C119.681 75.071 123.058 70.245 128.071 68.1466C129.646 67.4874 129.437 71.3171 129.691 73.0054C129.777 73.5804 129.31 74.1086 129.043 74.625C122.405 87.4475 115.806 100.29 109.284 113.171C99.7896 131.922 88.8321 150.52 82.0746 170.505C76.4461 187.151 72.9806 204.473 69.4418 221.684C68.6869 225.356 67.7236 228.99 67.1743 232.697C66.7459 235.589 65.4836 239.689 67.8222 241.443C68.2626 241.774 69.1551 241.589 69.4418 241.119C71.9556 236.997 73.9711 232.58 75.9202 228.163C80.4527 217.889 84.6376 207.465 88.8769 197.066C101.711 165.585 114.528 134.06 134.226 106.045C140.77 96.7371 148.218 86.1642 157.224 79.1599C158.367 78.2705 160.713 75.8235 161.111 77.2164C161.931 80.0878 159.871 83.0599 159.167 85.9622C159.006 86.6258 158.768 87.2697 158.519 87.9057C154.125 99.1476 149.914 110.465 145.239 121.593C136.584 142.194 125.155 161.458 116.734 182.166C110.584 197.29 106.192 213.204 101.51 228.81C99.193 236.533 98.6016 244.725 98.2706 252.78C98.2269 253.843 98.9481 254.83 99.5662 255.696C100.823 257.455 104.547 256.932 106.045 255.372C107.65 253.699 108.528 251.409 109.284 249.217C113.481 237.045 116.701 224.555 120.621 212.291C130.29 182.036 140.823 152.45 155.604 124.185C157.87 119.853 160.363 115.633 163.054 111.552C169.343 102.015 175.98 92.6515 183.461 84.0187C184.712 82.5751 186.083 81.1912 187.672 80.1316C188.413 79.6378 190.264 78.5934 190.264 79.4838C190.264 82.5243 188.606 85.3359 187.672 88.2296C186.446 92.0317 184.982 95.7553 183.785 99.5668C180.879 108.822 178.431 118.221 175.363 127.424C173.677 132.484 171.358 137.313 169.533 142.324C165.419 153.619 161.694 165.053 157.548 176.336C155.106 182.979 151.771 189.304 149.774 196.095C146.899 205.87 145.146 215.941 142.971 225.895C142.339 228.792 141.624 231.689 141.352 234.641C140.975 238.728 140.594 242.869 141.028 246.95C141.151 248.111 142.033 250.56 142.971 249.865C146.078 247.564 147.686 243.725 149.774 240.472C154.284 233.44 157.531 225.669 161.111 218.121C172.737 193.605 183.598 168.656 194.798 143.944C197.075 138.92 198.843 133.669 201.277 128.719C205.22 120.7 209.847 113.033 213.91 105.073C217.314 98.4036 220.394 91.5108 224.599 85.3143C226.019 83.2209 227.669 81.2727 229.458 79.4838C229.97 78.9716 231.259 77.8018 231.401 78.512C231.788 80.4441 230.959 82.4448 230.43 84.3426C229.658 87.1059 228.512 89.7509 227.514 92.4406C224.625 100.224 221.499 107.922 218.768 115.763C214.544 127.893 211.47 140.394 207.755 152.689C202.294 170.762 197.596 188.348 195.122 207.108C194.369 212.818 193.729 218.543 193.179 224.276C192.972 226.428 192.559 228.612 192.855 230.754C192.862 230.808 194.315 235.543 196.094 233.345C199.651 228.952 201.733 223.535 204.192 218.445C207.47 211.661 210.803 204.902 213.91 198.038C217.816 189.409 221.621 180.734 225.571 172.125C231.345 159.537 236.878 147.243 243.062 134.874" fill="none" opacity="1" stroke="#cf7b31" stroke-linecap="round" stroke-linejoin="round" stroke-width="14.5726"/>
</g>
<g id="Layer-1" vectornator:layerName="Layer 1">
<path d="M95.6724 90.2968C78.3734 101.829 64.6512 119.336 54.8895 137.711C39.3006 167.055 41.586 215.992 72.7942 234.197C126.432 265.486 210.532 235.374 244.546 186.783C251.918 176.252 259.39 165.035 262.119 152.3C263.995 143.547 264.335 134.007 263.446 125.111C257.075 61.4096 181.268 57.7071 134.466 73.7184C122.792 77.7122 92.4737 86.1424 85.7253 96.265" fill="none" opacity="1" stroke="#000000" stroke-linecap="round" stroke-linejoin="round" stroke-width="6.49565"/>
<path d="M51.9054 136.716C56.2158 136.053 32.5352 139.831 25.0484 134.727C12.9203 126.458 8.75808 110.859 18.0855 98.586C40.381 69.2498 70.442 102.959 54.8895 134.064" fill="none" opacity="1" stroke="#000000" stroke-linecap="round" stroke-linejoin="round" stroke-width="6.49565"/>
<path d="M191.827 63.7714C167.871 63.7714 166.909 21.1211 195.806 17.3519C224.688 13.5847 225.315 62.7767 191.827 64.4345" fill="none" opacity="1" stroke="#000000" stroke-linecap="round" stroke-linejoin="round" stroke-width="6.49565"/>
<path d="M38.3111 107.538C28.1576 106.107 25.1336 120.601 33.3376 124.117C43.7507 128.579 51.4579 109.391 38.3111 107.538Z" fill="none" opacity="1" stroke="#000000" stroke-linecap="round" stroke-linejoin="round" stroke-width="6.49565"/>
<path d="M165.965 163.076C161.97 163.253 165.48 167.909 166.959 170.868C167.239 171.427 167.844 172.636 168.286 172.194C168.519 171.961 165.47 166.894 165.302 166.557C164.925 165.804 163.712 163.641 164.307 164.236C165.608 165.538 166.71 167.613 167.623 169.21C167.82 169.556 168.567 170.486 168.286 170.205C166.75 168.669 166.172 165.647 165.965 163.573C165.921 163.133 165.597 162.002 165.965 162.247C167.519 163.283 168.888 169.057 169.612 170.868C169.704 171.097 170.191 171.531 169.944 171.531C168.75 171.531 167.102 166.749 166.959 165.894C166.795 164.907 165.92 162.202 166.628 162.91C167.238 163.521 171.84 171.591 170.275 171.199C166.569 170.273 170.616 162.869 165.965 163.076Z" fill="none" opacity="1" stroke="#000000" stroke-linecap="round" stroke-linejoin="round" stroke-width="6.49565"/>
<path d="M170.607 174.847C170.607 183.145 170.446 191.094 169.944 199.383C169.763 202.369 169.51 205.351 169.28 208.335C169.128 210.316 168.854 210.206 169.944 209.661" fill="none" opacity="1" stroke="#000000" stroke-linecap="round" stroke-linejoin="round" stroke-width="6.49565"/>
<path d="M172.596 173.189C171.944 171.884 182.309 177.557 182.875 177.831C187.298 179.971 191.815 183.242 196.469 184.794" fill="none" opacity="1" stroke="#000000" stroke-linecap="round" stroke-linejoin="round" stroke-width="6.49565"/>
<path d="M109.93 167.22L110.593 168.215L111.256 168.878L110.593 167.884L109.93 167.22L110.261 168.215L110.261 168.215" fill="none" opacity="1" stroke="#000000" stroke-linecap="round" stroke-linejoin="round" stroke-width="6.49565"/>
<path d="M194.811 120.469L195.143 121.796L195.806 123.122L196.137 123.785L196.137 123.785" fill="none" opacity="1" stroke="#000000" stroke-linecap="round" stroke-linejoin="round" stroke-width="6.49565"/>
<path d="M196.303 35.5881C188.101 32.2715 184.01 45.1793 191.827 47.5245C198.809 49.619 202.997 38.2947 196.303 35.5881Z" fill="none" opacity="1" stroke="#000000" stroke-linecap="round" stroke-linejoin="round" stroke-width="6.49565"/>
</g>
</svg>
