<?xml version="1.0" encoding="UTF-8" standalone="no"?>
<!DOCTYPE svg PUBLIC "-//W3C//DTD SVG 1.1//EN" "http://www.w3.org/Graphics/SVG/1.1/DTD/svg11.dtd">
<!-- Created with Vectornator (http://vectornator.io/) -->
<svg height="100%" stroke-miterlimit="10" style="fill-rule:nonzero;clip-rule:evenodd;stroke-linecap:round;stroke-linejoin:round;" version="1.1" viewBox="0 0 288 288" width="100%" xml:space="preserve" xmlns="http://www.w3.org/2000/svg" xmlns:vectornator="http://vectornator.io" xmlns:xlink="http://www.w3.org/1999/xlink">
<defs/>
<g id="Layer-2" vectornator:layerName="Layer 2">
<path d="M61.1852 162.044C59.6374 161.464 55.7217 161.738 56.5418 160.303C58.4056 157.041 62.7631 156.089 65.8285 153.918C67.4073 152.8 68.8621 151.509 70.4719 150.436C85.5401 140.39 97.9245 132.831 116.325 131.862C118.844 131.73 121.731 131.106 123.87 132.443C125.427 133.415 126.139 135.908 125.612 137.666C124.267 142.149 121.287 145.992 118.647 149.855C106.091 168.229 92.0123 185.689 79.1782 203.834C76.4188 207.735 74.0035 211.874 71.6327 216.023C68.7909 220.996 69.938 221.775 71.0523 221.247C80.7833 216.637 90.0178 206.599 97.1711 199.771C113.119 184.549 128.668 168.797 145.926 155.079C151.808 150.404 158.161 146.343 164.5 142.31C167.826 140.193 172.635 137.875 173.206 138.827C173.704 139.657 173.652 140.871 173.206 141.729C171.077 145.824 168.221 149.498 165.661 153.338C161.255 159.946 156.964 166.636 152.311 173.072C140.136 189.914 127.134 206.185 115.745 223.568C113.272 227.343 109.587 230.737 108.78 235.177C108.494 236.746 111.956 236.966 113.423 236.338C117.764 234.477 121.552 231.406 125.031 228.212C133.396 220.532 140.948 212.01 148.828 203.834C165.823 186.202 181.996 167.653 200.486 151.596C205.024 147.656 210.305 144.616 215.577 141.729C218.476 140.141 221.631 137.554 224.863 138.247C226.607 138.621 224.746 142.024 223.703 143.471C218.646 150.484 212.451 156.601 206.87 163.205C200.842 170.338 194.943 177.579 188.877 184.68C179.078 196.153 168.925 207.325 159.276 218.925C151.702 228.031 143.728 236.888 137.22 246.785C134.358 251.138 131.902 256.109 131.416 261.296C131.237 263.203 133.635 265.877 135.479 265.359C141.007 263.804 145.511 259.667 149.989 256.072C168.269 241.396 183.895 223.49 202.807 209.638C207.345 206.315 212.778 204.42 217.898 202.093C219.181 201.51 220.553 200.932 221.961 200.932C223.003 200.932 225.105 201.079 224.863 202.093C223.901 206.134 221.562 209.806 219.059 213.121C212.402 221.937 202.288 231.222 194.682 239.82C192.13 242.704 187.736 247.375 190.038 248.526C193.589 250.302 196.494 248.201 199.325 246.785C201.26 245.818 203.194 244.85 205.129 243.883" fill="none" opacity="1" stroke="#ffffff" stroke-linecap="round" stroke-linejoin="round" stroke-width="14.5726"/>
<path d="M58.2831 118.513C57.3157 119.286 56.372 120.091 55.381 120.834C54.8229 121.253 53.095 122.431 53.6397 121.995C59.5193 117.291 67.1746 111.943 72.7935 106.324C84.702 94.4153 95.5117 81.4553 107.038 69.1769C109.942 66.0833 113.065 63.1871 116.325 60.4706C118.882 58.3397 124.174 51.3493 124.451 54.6665C124.861 59.5934 119.665 63.3335 116.905 67.4357C109.624 78.2592 102.096 88.9229 94.2691 99.3587C88.6489 106.852 82.2471 113.754 76.8565 121.415C74.8647 124.245 72.8607 127.302 72.2131 130.701C71.9813 131.918 73.3749 133.168 74.5348 133.603C75.345 133.907 76.1935 132.999 76.8565 132.443C82.2115 127.951 87.8012 123.661 92.5278 118.513C98.6787 111.812 103.388 103.897 109.36 97.037C117.718 87.4361 126.545 78.2445 135.479 69.1769C139.516 65.0794 143.811 61.2293 148.248 57.5685C151.562 54.8348 154.426 49.5487 158.696 50.0231C161.896 50.3787 155.376 55.5523 153.472 58.149C146.859 67.167 139.705 75.7824 133.157 84.8482C128.524 91.2635 121.48 101.588 118.647 109.806C117.879 112.031 117.72 114.429 117.486 116.771C117.332 118.311 116.159 120.618 117.486 121.415C119.178 122.43 121.749 121.486 123.29 120.254C128.739 115.894 132.866 110.097 137.8 105.163C151.345 91.6184 164.429 77.5352 179.01 65.114C182.32 62.2946 185.892 59.4582 190.038 58.149C191.145 57.7994 190.704 60.6805 190.038 61.6315C186.5 66.6861 181.89 70.899 177.849 75.5615C171.83 82.5075 165.677 89.3428 159.856 96.4566C156.965 99.9906 153.909 103.472 151.731 107.485C150.295 110.13 146.691 117.924 150.57 121.415C153.202 123.783 159.787 120.07 161.017 119.093C165.839 115.264 169.875 110.535 174.367 106.324C179.162 101.829 183.856 97.2145 188.877 92.9741C192.573 89.8535 196.461 86.9508 200.486 84.2678C201.149 83.8253 202.074 83.3732 202.807 83.6874C207.7 85.7842 201.06 91.1129 198.164 95.2958C195.079 99.7526 192.182 104.349 188.877 108.645C186.369 111.906 183.155 114.594 180.751 117.932C179.638 119.478 177.578 121.452 178.43 123.156C179.213 124.723 181.986 124.272 183.654 123.736C187.608 122.465 191.133 120.092 194.682 117.932C200.044 114.668 205.076 110.885 210.353 107.485C213.784 105.274 217.382 103.329 220.8 101.1C221.838 100.423 224.304 97.6954 223.703 98.7783C218.287 108.527 207.509 113.293 201.647 122.575C201.185 123.307 201.942 124.897 202.807 124.897C206.943 124.897 211.035 123.764 214.996 122.575C220.332 120.975 225.205 115.679 230.668 116.771C234.518 117.541 226.941 131.282 234.15 131.282C238.039 131.282 241.889 130.508 245.758 130.121" fill="none" opacity="1" stroke="#f60d0d" stroke-linecap="round" stroke-linejoin="round" stroke-width="14.5726"/>
<path d="M229.507 29.128C228.926 29.3215 228.346 29.515 227.765 29.7084" fill="none" opacity="1" stroke="#ffffff" stroke-linecap="round" stroke-linejoin="round" stroke-width="14.5726"/>
<path d="M228.346 30.8693C224.895 30.8693 221.2 37.7313 219.64 39.5756C219.286 39.9933 218.015 41.0264 218.479 40.7364C223.304 37.7206 227.242 33.2538 232.409 30.8693C234.546 29.8829 237.127 29.0064 239.374 29.7084C240.863 30.1737 242.215 32.3005 241.695 33.7714C240.785 36.3515 237.902 37.7197 235.891 39.5756C233.643 41.6505 230.867 43.0663 228.346 44.7993C227.196 45.5897 223.615 47.7449 224.863 47.121C230.77 44.1678 235.962 39.9498 241.695 36.6735C246.053 34.1833 250.465 31.7615 255.045 29.7084C256.758 28.9407 259.389 28.0567 259.108 30.8693C258.611 35.835 255.642 38.1481 252.143 41.8972C252.007 42.043 247.042 45.5025 247.5 45.9602C248.365 46.8254 249.906 45.3821 250.982 44.7993C258.07 40.9602 261.325 37.7601 268.395 34.9322C268.934 34.7166 269.814 34.4493 270.136 34.9322C272.497 38.473 258.64 39.5043 266.073 42.4777C267.209 42.9321 268.395 43.2515 269.556 43.6385" fill="none" opacity="1" stroke="#ffffff" stroke-linecap="round" stroke-linejoin="round" stroke-width="14.5726"/>
</g>
<g id="Layer-1" vectornator:layerName="Layer 1">
<path d="M46.9505 129.278C46.9505 126.093 67.2134 109.052 69.8596 106.641C87.7726 90.3207 106.072 75.1972 125.496 60.8232C133.079 55.2116 141.482 47.9924 150.314 44.4596" fill="none" opacity="1" stroke="#000000" stroke-linecap="round" stroke-linejoin="round" stroke-width="6.49565"/>
<path d="M149.496 44.1869C149.932 45.0591 157.943 49.2183 159.041 49.9141C166.2 54.4481 172.735 60.0039 179.223 65.4596C195.354 79.0245 210.167 93.6762 225.041 108.551C234.477 117.986 245.65 126.756 253.678 137.46" fill="none" opacity="1" stroke="#000000" stroke-linecap="round" stroke-linejoin="round" stroke-width="6.49565"/>
<path d="M46.9505 128.187C48.1027 130.491 56.9202 129.005 59.2232 129.005C73.2846 129.005 87.1883 129.237 101.223 130.096C142.208 132.605 183.243 133.415 224.223 135.278C234.33 135.737 244.707 137.46 254.769 137.46" fill="none" opacity="1" stroke="#000000" stroke-linecap="round" stroke-linejoin="round" stroke-width="6.49565"/>
<path d="M193.951 77.7323C193.951 70.2564 193.782 61.2263 195.587 54.0051C195.631 53.8287 195.414 53.5171 195.587 53.4596C198.036 52.6432 204.021 54.2778 206.769 54.2778C227.618 54.2778 220.54 57.5945 217.405 77.1869C216.691 81.652 218.119 93.438 213.86 96.2778" fill="none" opacity="1" stroke="#000000" stroke-linecap="round" stroke-linejoin="round" stroke-width="6.49565"/>
<path d="M211.132 45.0051C203.494 41.1857 207.137 30.0855 213.314 27.2778C216.281 25.9292 221.089 25.6327 223.678 27.8232C224.827 28.7953 226.063 33.3417 225.587 31.9141C223.676 26.1806 229.562 19.8828 234.86 18.8232C239.123 17.9706 245.124 21.0853 247.678 24.2778C248.087 24.7897 248.769 25.9141 248.769 25.9141C248.769 25.9141 248.278 24.6646 248.223 24.0051C247.939 20.5981 250.009 17.3974 253.132 16.096C257.702 14.1918 263.59 17.3277 266.223 21.2778C267.938 23.8492 268.132 28.6701 268.132 31.6414C268.132 33.0051 265.247 36.2078 265.678 34.9141C267.552 29.2914 281.669 44.192 268.951 51.8232C265.112 54.1265 258.332 55.2001 253.951 54.0051C252.449 53.5956 253.405 47.8126 253.405 49.3687C253.405 53.3938 243.564 56.6684 240.314 55.3687C237.265 54.1492 238.6 48.1026 237.314 47.4596C237.252 47.4287 236.041 49.5662 235.951 49.6414C234.12 51.167 227.606 52.4255 226.678 49.6414" fill="none" opacity="1" stroke="#000000" stroke-linecap="round" stroke-linejoin="round" stroke-width="6.49565"/>
<path d="M212.223 46.9141C213.746 51.4818 222.264 52.9645 225.587 49.6414" fill="none" opacity="1" stroke="#000000" stroke-linecap="round" stroke-linejoin="round" stroke-width="6.49565"/>
<path d="M70.6778 133.641C69.4426 131.171 72.4423 144.352 72.5869 145.096C74.3246 154.033 75.5517 163.103 76.9505 172.096C81.0497 198.448 87.1142 225.296 93.5869 251.187" fill="none" opacity="1" stroke="#000000" stroke-linecap="round" stroke-linejoin="round" stroke-width="6.49565"/>
<path d="M224.496 136.641L207.314 249.551" fill="none" opacity="1" stroke="#000000" stroke-linecap="round" stroke-linejoin="round" stroke-width="6.49565"/>
<path d="M93.5869 251.732C113.824 251.732 134.19 250.465 154.405 251.187C171.685 251.804 189.039 252.005 206.223 252.005" fill="none" opacity="1" stroke="#000000" stroke-linecap="round" stroke-linejoin="round" stroke-width="6.49565"/>
<path d="M139.951 249.278C139.951 237.408 139.556 225.41 139.132 213.551C139.045 211.111 137.15 201.252 138.587 199.096C139.033 198.427 142.643 198.823 143.223 198.823C146.383 198.823 149.375 198.278 152.496 198.278C155.401 198.278 166.952 196.098 168.587 198.823C170.759 202.444 169.678 208.716 169.678 212.732C169.678 225.351 166.678 237.83 166.678 250.369" fill="none" opacity="1" stroke="#000000" stroke-linecap="round" stroke-linejoin="round" stroke-width="6.49565"/>
<path d="M159.314 228.278L159.314 228.823L159.314 229.641L159.314 230.187L159.314 230.187" fill="none" opacity="1" stroke="#000000" stroke-linecap="round" stroke-linejoin="round" stroke-width="6.49565"/>
<path d="M91.6778 156.005C91.6778 163.625 94.1557 172.04 95.7687 179.46C95.9983 180.516 96.597 186.359 98.2232 186.823C100.933 187.598 104.32 186.315 106.951 186.005C113.392 185.247 119.707 183.727 126.041 182.46C128.215 182.025 132.012 182.883 133.951 181.914C135.033 181.373 134.283 174.196 134.223 173.187C133.848 166.808 133.485 160.11 132.587 153.823C132.285 151.712 133.362 149.438 131.223 148.369" fill="none" opacity="1" stroke="#000000" stroke-linecap="round" stroke-linejoin="round" stroke-width="6.49565"/>
<path d="M93.0414 153.278C97.2434 153.278 101.391 151.313 105.314 150.005C113.266 147.355 122.526 144.823 130.951 144.823" fill="none" opacity="1" stroke="#000000" stroke-linecap="round" stroke-linejoin="round" stroke-width="6.49565"/>
<path d="M112.951 148.914C112.951 153.4 115.565 158.204 116.496 162.551C117.205 165.861 117.403 169.296 117.86 172.641C118.263 175.597 118.574 178.722 119.223 181.641C119.286 181.922 119.208 182.46 119.496 182.46C119.769 182.46 119.496 181.914 119.496 181.641" fill="none" opacity="1" stroke="#000000" stroke-linecap="round" stroke-linejoin="round" stroke-width="6.49565"/>
<path d="M96.8596 170.46C99.2163 169.674 101.799 169.647 104.223 169.096C110.279 167.72 116.301 166.025 122.223 164.187C125.044 163.312 130.383 163.118 132.587 160.914" fill="none" opacity="1" stroke="#000000" stroke-linecap="round" stroke-linejoin="round" stroke-width="6.49565"/>
<path d="M166.405 150.551C166.587 150.187 166.822 149.074 166.951 149.46C167.564 151.3 166.537 158.121 166.405 160.096C166.031 165.711 166.603 171.43 165.86 177.005C165.666 178.455 164.68 182.627 166.951 183.005C169.178 183.376 171.498 182.877 173.769 183.278C177.519 183.94 181.159 185.215 184.951 185.732C188.114 186.164 191.367 185.982 194.496 186.551C196.452 186.906 201.59 189.166 203.496 187.641C204.376 186.938 205.265 182.18 205.405 181.641C206.777 176.381 207.792 171.07 209.223 165.823C210.09 162.644 210.733 159.426 211.678 156.278C212.113 154.828 213.314 153.167 213.314 151.641" fill="none" opacity="1" stroke="#000000" stroke-linecap="round" stroke-linejoin="round" stroke-width="6.49565"/>
<path d="M169.951 147.823C168.206 148.405 173.567 148.641 175.405 148.641C178.737 148.641 181.923 148.914 185.223 148.914C195.318 148.914 205.483 151.096 215.496 151.096" fill="none" opacity="1" stroke="#000000" stroke-linecap="round" stroke-linejoin="round" stroke-width="6.49565"/>
<path d="M191.769 152.187C190.536 154.651 190.95 158.559 190.678 161.187C190.028 167.467 188.423 173.328 187.132 179.46C186.921 180.461 186.259 186.604 184.951 184.641" fill="none" opacity="1" stroke="#000000" stroke-linecap="round" stroke-linejoin="round" stroke-width="6.49565"/>
<path d="M168.587 164.187C169.345 166.462 176.339 166.024 178.405 166.369C185.924 167.622 193.443 168.478 201.041 168.823C202.596 168.894 206.92 168.429 208.132 169.641" fill="none" opacity="1" stroke="#000000" stroke-linecap="round" stroke-linejoin="round" stroke-width="6.49565"/>
</g>
</svg>
